<svg width="40" height="28" viewBox="0 0 40 28" fill="none" xmlns="http://www.w3.org/2000/svg">
<path d="M12.392 21.708C13.952 21.708 15.08 21.132 15.776 19.98C16.472 18.828 16.82 17.04 16.82 14.616V13.572C16.82 11.172 16.46 9.396 15.74 8.244C15.02 7.068 13.88 6.48 12.32 6.48C10.76 6.48 9.62 7.056 8.9 8.208C8.18 9.36 7.82 11.148 7.82 13.572V14.652C7.82 17.052 8.18 18.828 8.9 19.98C9.644 21.132 10.808 21.708 12.392 21.708ZM12.176 27.432C8.504 27.432 5.648 26.316 3.608 24.084C1.496 21.828 0.44 18.696 0.44 14.688V13.608C0.44 9.648 1.568 6.516 3.824 4.212C5.984 2.004 8.816 0.899999 12.32 0.899999C15.776 0.899999 18.608 1.944 20.816 4.032C23.072 6.288 24.2 9.432 24.2 13.464V14.472C24.2 18.528 23.12 21.708 20.96 24.012C18.752 26.292 15.824 27.432 12.176 27.432ZM31.8404 8.532L26.9444 11.556V5.4L32.8484 1.26H39.2204V27H31.8404V8.532Z" fill="#4092BF" fill-opacity="0.1"/>
</svg>
