<svg width="47" height="28" viewBox="0 0 47 28" fill="none" xmlns="http://www.w3.org/2000/svg">
<path d="M12.392 21.708C13.952 21.708 15.08 21.132 15.776 19.98C16.472 18.828 16.82 17.04 16.82 14.616V13.572C16.82 11.172 16.46 9.396 15.74 8.244C15.02 7.068 13.88 6.48 12.32 6.48C10.76 6.48 9.62 7.056 8.9 8.208C8.18 9.36 7.82 11.148 7.82 13.572V14.652C7.82 17.052 8.18 18.828 8.9 19.98C9.644 21.132 10.808 21.708 12.392 21.708ZM12.176 27.432C8.504 27.432 5.648 26.316 3.608 24.084C1.496 21.828 0.44 18.696 0.44 14.688V13.608C0.44 9.648 1.568 6.516 3.824 4.212C5.984 2.004 8.816 0.899999 12.32 0.899999C15.776 0.899999 18.608 1.944 20.816 4.032C23.072 6.288 24.2 9.432 24.2 13.464V14.472C24.2 18.528 23.12 21.708 20.96 24.012C18.752 26.292 15.824 27.432 12.176 27.432ZM26.0804 25.956L35.0804 16.416C36.4964 14.904 37.5524 13.596 38.2484 12.492C38.9684 11.388 39.3284 10.332 39.3284 9.324C39.3284 8.436 39.0884 7.74 38.6084 7.236C38.1524 6.708 37.4804 6.444 36.5924 6.444C34.6724 6.444 33.5684 7.836 33.2804 10.62H26.5844C26.7044 7.452 27.6644 5.04 29.4644 3.384C31.2884 1.728 33.7844 0.899999 36.9524 0.899999C40.0244 0.899999 42.4244 1.668 44.1524 3.204C45.7844 4.692 46.6004 6.636 46.6004 9.036C46.6004 10.668 46.1564 12.252 45.2684 13.788C44.5724 14.988 43.3964 16.392 41.7404 18L38.1404 21.492H46.7804V27H26.0804V25.956Z" fill="#4092BF" fill-opacity="0.1"/>
</svg>
