<svg width="48" height="28" viewBox="0 0 48 28" fill="none" xmlns="http://www.w3.org/2000/svg">
<path d="M12.392 21.708C13.952 21.708 15.08 21.132 15.776 19.98C16.472 18.828 16.82 17.04 16.82 14.616V13.572C16.82 11.172 16.46 9.396 15.74 8.244C15.02 7.068 13.88 6.48 12.32 6.48C10.76 6.48 9.62 7.056 8.9 8.208C8.18 9.36 7.82 11.148 7.82 13.572V14.652C7.82 17.052 8.18 18.828 8.9 19.98C9.644 21.132 10.808 21.708 12.392 21.708ZM12.176 27.432C8.504 27.432 5.648 26.316 3.608 24.084C1.496 21.828 0.44 18.696 0.44 14.688V13.608C0.44 9.648 1.568 6.516 3.824 4.212C5.984 2.004 8.816 0.899999 12.32 0.899999C15.776 0.899999 18.608 1.944 20.816 4.032C23.072 6.288 24.2 9.432 24.2 13.464V14.472C24.2 18.528 23.12 21.708 20.96 24.012C18.752 26.292 15.824 27.432 12.176 27.432ZM37.3527 27.432C33.8487 27.432 31.2087 26.664 29.4327 25.128C27.6567 23.592 26.7207 21.396 26.6247 18.54H33.1767C33.3207 19.692 33.6807 20.58 34.2567 21.204C34.8327 21.804 35.7327 22.104 36.9567 22.104C39.2127 22.104 40.3407 21.132 40.3407 19.188C40.3407 17.172 39.2127 16.164 36.9567 16.164H34.9047V11.592H36.8127C39.0927 11.592 40.2327 10.644 40.2327 8.748C40.2327 7.956 39.9807 7.332 39.4767 6.876C38.9727 6.42 38.2407 6.192 37.2807 6.192C35.2887 6.192 34.1487 7.284 33.8607 9.468H27.3447C27.4887 6.9 28.4127 4.836 30.1167 3.276C31.9407 1.692 34.3887 0.899999 37.4607 0.899999C40.4127 0.899999 42.7887 1.536 44.5887 2.808C46.2927 4.128 47.1447 5.844 47.1447 7.956C47.1447 10.764 45.6927 12.612 42.7887 13.5C44.3247 13.812 45.5367 14.472 46.4247 15.48C47.3367 16.488 47.7927 17.772 47.7927 19.332C47.7927 21.828 46.8807 23.808 45.0567 25.272C43.2567 26.712 40.6887 27.432 37.3527 27.432Z" fill="#4092BF" fill-opacity="0.1"/>
</svg>
