<svg width="53" height="48" viewBox="0 0 53 48" fill="none" xmlns="http://www.w3.org/2000/svg">
<circle cx="19" cy="22.9998" r="19" fill="#67A955" fill-opacity="0.2"/>
<path d="M39.6904 27.7636C38.516 27.6092 37.3577 27.3212 36.2505 26.9084C35.0217 26.4492 33.625 26.7452 32.6881 27.6692L31.4906 28.8635C28.8018 27.2275 26.5403 24.9708 24.8995 22.2876L26.0987 21.0908C27.0218 20.158 27.3202 18.7628 26.8587 17.5373C26.4443 16.4292 26.1555 15.2741 26.0004 14.0949C25.7644 12.4278 24.3244 11.159 22.634 11.1981H18.7725C18.6717 11.1981 18.5709 11.2029 18.4718 11.2126C17.5742 11.2926 16.7621 11.7182 16.1846 12.4085C15.607 13.1005 15.3334 13.9749 15.4157 14.8837C15.8493 18.9596 17.2589 22.9324 19.4877 26.3667C21.5132 29.5483 24.2684 32.2987 27.4508 34.317C30.8804 36.5361 34.8419 37.9434 38.9235 38.3858C39.0275 38.3954 39.1316 38.3994 39.2387 38.3994C40.1403 38.3962 40.9859 38.0426 41.6211 37.4018C42.2562 36.7634 42.6035 35.9154 42.6003 35.0186V31.174C42.6375 29.4676 41.3911 28.0028 39.6904 27.7636ZM41.0016 31.1668V35.0235C41.0032 35.4955 40.8207 35.9403 40.4872 36.2763C40.1536 36.6123 39.7088 36.7979 39.2376 36.7995C39.18 36.7995 39.1224 36.797 39.0808 36.7938C35.2632 36.3802 31.5433 35.0587 28.3153 32.9699C25.3241 31.0731 22.7385 28.4924 20.8346 25.5028C18.7378 22.2724 17.4146 18.5429 17.0082 14.7285C16.965 14.2581 17.109 13.7989 17.4122 13.4366C17.7162 13.0734 18.1434 12.8502 18.617 12.8078C18.669 12.803 18.7209 12.7998 18.773 12.7998H22.6425C22.6473 12.7998 22.6538 12.7998 22.6593 12.7998C23.5394 12.7998 24.2929 13.451 24.4169 14.315C24.5874 15.6062 24.9049 16.8798 25.3625 18.1022C25.6041 18.7462 25.4481 19.4781 24.9665 19.9638L23.3321 21.5957C23.076 21.8502 23.0233 22.2446 23.2017 22.5582C25.1049 25.8982 27.8792 28.6669 31.2248 30.5653C31.5376 30.7421 31.9303 30.69 32.1848 30.4357L33.8168 28.8078C34.3079 28.3237 35.0416 28.1654 35.6912 28.4102C36.9127 28.8653 38.1887 29.1822 39.4759 29.3518C40.3679 29.4774 41.0239 30.2493 41.0015 31.1477C41.0016 31.1532 41.0016 31.1604 41.0016 31.1668Z" fill="#3A4244"/>
<path d="M29.0003 0C15.7669 0 5.00058 10.7663 5.00058 23.9997C5.00058 28.5764 6.29178 33.0132 8.73891 36.8604L5.04933 46.9242C4.94292 47.2122 5.01173 47.5362 5.22614 47.7563C5.3797 47.9147 5.58773 47.9994 5.80054 47.9994C5.88538 47.9994 5.97097 47.9858 6.05338 47.9587L16.4925 44.4795C20.2573 46.7827 24.5732 47.9995 29.0004 47.9995C42.2338 47.9995 53.0001 37.2332 53.0001 23.9998C53.0001 10.7664 42.2337 0 29.0003 0ZM29.001 46.3994C24.7499 46.3994 20.6084 45.1978 17.0252 42.9251C16.8956 42.8435 16.7468 42.8011 16.5964 42.8011C16.5108 42.8011 16.4259 42.8147 16.3435 42.8427L7.12361 45.9155L10.3796 37.0356C10.4668 36.7972 10.4364 36.5316 10.2965 36.3196C7.87886 32.6581 6.60134 28.3981 6.60134 23.9998C6.60134 11.6488 16.65 1.60011 29.001 1.60011C41.3521 1.60011 51.4008 11.6488 51.4008 23.9998C51.4008 36.3509 41.3521 46.3994 29.001 46.3994Z" fill="#3A4244"/>
</svg>
