<svg width="36" height="36" viewBox="0 0 36 36" fill="none" xmlns="http://www.w3.org/2000/svg">
<g opacity="0.5">
<path d="M7.47388 27.725L14.223 20.9759L15.0184 21.7712L8.26925 28.5204L7.47388 27.725Z" fill="#3A4244"/>
<path d="M9 24.1875C9.93038 24.1875 10.6875 23.4304 10.6875 22.5C10.6875 21.5696 9.93038 20.8125 9 20.8125C8.06962 20.8125 7.3125 21.5696 7.3125 22.5C7.3125 23.4304 8.06962 24.1875 9 24.1875ZM9 21.9375C9.3105 21.9375 9.5625 22.1895 9.5625 22.5C9.5625 22.8105 9.3105 23.0625 9 23.0625C8.6895 23.0625 8.4375 22.8105 8.4375 22.5C8.4375 22.1895 8.6895 21.9375 9 21.9375Z" fill="#3A4244"/>
<path d="M13.5 25.3125C12.5696 25.3125 11.8125 26.0696 11.8125 27C11.8125 27.9304 12.5696 28.6875 13.5 28.6875C14.4304 28.6875 15.1875 27.9304 15.1875 27C15.1875 26.0696 14.4304 25.3125 13.5 25.3125ZM13.5 27.5625C13.1895 27.5625 12.9375 27.3105 12.9375 27C12.9375 26.6895 13.1895 26.4375 13.5 26.4375C13.8105 26.4375 14.0625 26.6895 14.0625 27C14.0625 27.3105 13.8105 27.5625 13.5 27.5625Z" fill="#3A4244"/>
<path d="M32.625 0.5625H16.875C15.3242 0.5625 14.0625 1.82419 14.0625 3.375V14.4506C13.1648 14.2048 12.2248 14.0625 11.25 14.0625C5.35669 14.0625 0.5625 18.8567 0.5625 24.75C0.5625 30.6433 5.35669 35.4375 11.25 35.4375C15.3124 35.4375 18.8516 33.1582 20.6589 29.8125H32.625C34.1758 29.8125 35.4375 28.5508 35.4375 27V3.375C35.4375 1.82419 34.1758 0.5625 32.625 0.5625ZM17.4375 24.75C17.4375 28.1616 14.6616 30.9375 11.25 30.9375C7.83844 30.9375 5.0625 28.1616 5.0625 24.75C5.0625 21.3384 7.83844 18.5625 11.25 18.5625C14.6616 18.5625 17.4375 21.3384 17.4375 24.75ZM10.6875 17.4662C9.09394 17.5883 7.64381 18.2205 6.49856 19.2032L4.90837 17.613C6.4665 16.227 8.47519 15.3461 10.6881 15.2162V17.4662H10.6875ZM5.70319 19.9986C4.7205 21.1438 4.08825 22.5939 3.96619 24.1875H1.71619C1.84556 21.9752 2.727 19.9659 4.113 18.4078L5.70319 19.9986ZM3.96619 25.3125C4.08825 26.9061 4.7205 28.3562 5.70319 29.5014L4.113 31.0916C2.72644 29.5341 1.84556 27.5248 1.71619 25.3125H3.96619ZM6.49856 30.2968C7.64381 31.2795 9.0945 31.9118 10.6875 32.0338V34.2838C8.47519 34.1544 6.46594 33.273 4.90781 31.887L6.49856 30.2968ZM11.8125 32.0338C13.4061 31.9118 14.8562 31.2795 16.0014 30.2968L17.5916 31.887C16.0335 33.273 14.0248 34.1539 11.8119 34.2838V32.0338H11.8125ZM16.7968 29.5014C17.7795 28.3562 18.4118 26.9055 18.5338 25.3125H20.7838C20.6544 27.5248 19.773 29.5341 18.387 31.0922L16.7968 29.5014ZM21.1764 20.8125H22.5C22.8105 20.8125 23.0625 21.0645 23.0625 21.375V25.875C23.0625 26.1855 22.8105 26.4375 22.5 26.4375H21.7907C21.879 25.8862 21.9375 25.3254 21.9375 24.75C21.9375 23.3589 21.6624 22.0326 21.1764 20.8125ZM20.7838 24.1875H18.5338C18.4118 22.5939 17.7795 21.1438 16.7968 19.9986L18.387 18.4084C19.7736 19.9659 20.6544 21.9752 20.7838 24.1875ZM17.4375 16.0521V12.375C17.4375 12.0645 17.6895 11.8125 18 11.8125H22.5C22.8105 11.8125 23.0625 12.0645 23.0625 12.375V16.875C23.0625 17.1855 22.8105 17.4375 22.5 17.4375H19.0226C18.5411 16.9256 18.0112 16.4616 17.4375 16.0521ZM17.5922 17.6124L16.002 19.2026C14.8567 18.2199 13.4061 17.5877 11.8131 17.4656V15.2156C14.0248 15.3456 16.0341 16.2264 17.5922 17.6124ZM34.3125 27C34.3125 27.9304 33.5554 28.6875 32.625 28.6875H21.1764C21.3221 28.3219 21.4447 27.9461 21.5494 27.5625H22.5C23.4304 27.5625 24.1875 26.8054 24.1875 25.875V21.375C24.1875 20.4446 23.4304 19.6875 22.5 19.6875H20.6589C20.4469 19.2954 20.2056 18.9231 19.9479 18.5625H22.5C23.4304 18.5625 24.1875 17.8054 24.1875 16.875V12.375C24.1875 11.4446 23.4304 10.6875 22.5 10.6875H18C17.0696 10.6875 16.3125 11.4446 16.3125 12.375V15.3411C15.9508 15.1453 15.5728 14.9771 15.1875 14.8236V3.375C15.1875 2.44463 15.9446 1.6875 16.875 1.6875H32.625C33.5554 1.6875 34.3125 2.44463 34.3125 3.375V27Z" fill="#3A4244"/>
<path d="M31.5 2.8125H18C17.0696 2.8125 16.3125 3.56962 16.3125 4.5V7.875C16.3125 8.80538 17.0696 9.5625 18 9.5625H31.5C32.4304 9.5625 33.1875 8.80538 33.1875 7.875V4.5C33.1875 3.56962 32.4304 2.8125 31.5 2.8125ZM32.0625 7.875C32.0625 8.1855 31.8105 8.4375 31.5 8.4375H18C17.6895 8.4375 17.4375 8.1855 17.4375 7.875V4.5C17.4375 4.1895 17.6895 3.9375 18 3.9375H31.5C31.8105 3.9375 32.0625 4.1895 32.0625 4.5V7.875Z" fill="#3A4244"/>
<path d="M31.5 10.6875H27C26.0696 10.6875 25.3125 11.4446 25.3125 12.375V16.875C25.3125 17.8054 26.0696 18.5625 27 18.5625H31.5C32.4304 18.5625 33.1875 17.8054 33.1875 16.875V12.375C33.1875 11.4446 32.4304 10.6875 31.5 10.6875ZM32.0625 16.875C32.0625 17.1855 31.8105 17.4375 31.5 17.4375H27C26.6895 17.4375 26.4375 17.1855 26.4375 16.875V12.375C26.4375 12.0645 26.6895 11.8125 27 11.8125H31.5C31.8105 11.8125 32.0625 12.0645 32.0625 12.375V16.875Z" fill="#3A4244"/>
<path d="M31.5 19.6875H27C26.0696 19.6875 25.3125 20.4446 25.3125 21.375V25.875C25.3125 26.8054 26.0696 27.5625 27 27.5625H31.5C32.4304 27.5625 33.1875 26.8054 33.1875 25.875V21.375C33.1875 20.4446 32.4304 19.6875 31.5 19.6875ZM32.0625 25.875C32.0625 26.1855 31.8105 26.4375 31.5 26.4375H27C26.6895 26.4375 26.4375 26.1855 26.4375 25.875V21.375C26.4375 21.0645 26.6895 20.8125 27 20.8125H31.5C31.8105 20.8125 32.0625 21.0645 32.0625 21.375V25.875Z" fill="#3A4244"/>
</g>
</svg>
