<svg width="82" height="75" viewBox="0 0 82 75" fill="none" xmlns="http://www.w3.org/2000/svg">
<g opacity="0.14">
<g clip-path="url(#clip0)">
<path d="M84.3836 2.8595H30.0348C28.8979 2.86289 27.8085 3.31588 27.0045 4.11953C26.2006 4.92319 25.7475 6.0122 25.7441 7.14873V22.8759H4.29058C3.91126 22.8759 3.54748 23.0265 3.27926 23.2947C3.01104 23.5628 2.86035 23.9265 2.86035 24.3057V81.4954C2.86035 81.8746 3.01104 82.2383 3.27926 82.5064C3.54748 82.7745 3.91126 82.9251 4.29058 82.9251H25.7441V84.3549C25.7475 85.4914 26.2006 86.5804 27.0045 87.3841C27.8085 88.1877 28.8979 88.6407 30.0348 88.6441H84.3836C85.5205 88.6407 86.6099 88.1877 87.4138 87.3841C88.2178 86.5804 88.6709 85.4914 88.6743 84.3549V7.14873C88.6709 6.0122 88.2178 4.92319 87.4138 4.11953C86.6099 3.31588 85.5205 2.86289 84.3836 2.8595ZM8.58128 80.0657H5.72082V25.7354H8.58128V80.0657ZM11.4417 80.0657V25.7354H42.9069V80.0657H11.4417ZM85.8138 84.3549C85.8138 84.7341 85.6632 85.0977 85.3949 85.3659C85.1267 85.634 84.7629 85.7846 84.3836 85.7846H30.0348C29.6555 85.7846 29.2917 85.634 29.0234 85.3659C28.7552 85.0977 28.6045 84.7341 28.6045 84.3549V82.9251H44.3371C44.7164 82.9251 45.0802 82.7745 45.3484 82.5064C45.6166 82.2383 45.7673 81.8746 45.7673 81.4954V24.3057C45.7673 23.9265 45.6166 23.5628 45.3484 23.2947C45.0802 23.0265 44.7164 22.8759 44.3371 22.8759H28.6045V7.14873C28.6045 6.76954 28.7552 6.40588 29.0234 6.13775C29.2917 5.86962 29.6555 5.71898 30.0348 5.71898H84.3836C84.7629 5.71898 85.1267 5.86962 85.3949 6.13775C85.6632 6.40588 85.8138 6.76954 85.8138 7.14873V84.3549Z" fill="white"/>
<path d="M78.9374 57.4056C78.6691 57.1376 78.3054 56.987 77.9262 56.987C77.5469 56.987 77.1832 57.1376 76.915 57.4056L65.7907 68.5262L60.7334 63.472C60.4651 63.204 60.1014 63.0534 59.7222 63.0534C59.3429 63.0534 58.9792 63.204 58.711 63.472L54.6663 67.5154C54.3982 67.7835 54.2476 68.1471 54.2476 68.5262C54.2476 68.9053 54.3982 69.2689 54.6663 69.537L64.7795 79.6467C65.0477 79.9148 65.4114 80.0653 65.7907 80.0653C66.1699 80.0653 66.5336 79.9148 66.8018 79.6467L82.9835 63.472C83.1165 63.3393 83.2219 63.1816 83.2939 63.008C83.3659 62.8344 83.4029 62.6484 83.4029 62.4605C83.4029 62.2726 83.3659 62.0866 83.2939 61.913C83.2219 61.7394 83.1165 61.5817 82.9835 61.449L78.9374 57.4056ZM65.7907 76.6142L57.6998 68.5262L59.7222 66.5045L64.7795 71.5587C65.0477 71.8267 65.4114 71.9773 65.7907 71.9773C66.1699 71.9773 66.5336 71.8267 66.8018 71.5587L77.9262 60.4381L79.95 62.4612L65.7907 76.6142Z" fill="white"/>
<path d="M80.0931 18.5867V12.8677C80.0931 12.4885 79.9424 12.1248 79.6742 11.8567C79.406 11.5886 79.0422 11.438 78.6629 11.438H35.7559C35.3766 11.438 35.0128 11.5886 34.7446 11.8567C34.4764 12.1248 34.3257 12.4885 34.3257 12.8677V18.5867C34.3257 18.9659 34.4764 19.3295 34.7446 19.5977C35.0128 19.8658 35.3766 20.0164 35.7559 20.0164H78.6629C79.0422 20.0164 79.406 19.8658 79.6742 19.5977C79.9424 19.3295 80.0931 18.9659 80.0931 18.5867ZM77.2327 17.1569H37.1861V14.2974H77.2327V17.1569Z" fill="white"/>
<path d="M54.3486 25.7354H60.0696V28.5949H54.3486V25.7354Z" fill="white"/>
<path d="M62.9302 25.7354H80.093V28.5949H62.9302V25.7354Z" fill="white"/>
<path d="M54.3486 34.3138H60.0696V37.1733H54.3486V34.3138Z" fill="white"/>
<path d="M62.9302 34.3138H80.093V37.1733H62.9302V34.3138Z" fill="white"/>
<path d="M54.3486 42.8923H60.0696V45.7518H54.3486V42.8923Z" fill="white"/>
<path d="M62.9302 42.8923H80.093V45.7518H62.9302V42.8923Z" fill="white"/>
<path d="M54.3486 51.4708H60.0696V54.3302H54.3486V51.4708Z" fill="white"/>
<path d="M62.9302 51.4708H80.093V54.3302H62.9302V51.4708Z" fill="white"/>
<path d="M27.1741 45.7518C25.7597 45.7518 24.3771 46.1711 23.2011 46.9566C22.0251 47.7421 21.1086 48.8586 20.5673 50.1648C20.026 51.4711 19.8844 52.9085 20.1604 54.2952C20.4363 55.6819 21.1174 56.9557 22.1175 57.9554C23.1176 58.9552 24.3918 59.636 25.779 59.9119C27.1662 60.1877 28.604 60.0461 29.9107 59.5051C31.2174 58.964 32.3343 58.0477 33.1201 56.8721C33.9059 55.6965 34.3253 54.3144 34.3253 52.9005C34.323 51.0053 33.5689 49.1883 32.2282 47.8481C30.8876 46.508 29.07 45.7541 27.1741 45.7518ZM27.1741 57.1898C26.3255 57.1898 25.4959 56.9382 24.7903 56.4669C24.0847 55.9956 23.5348 55.3257 23.21 54.5419C22.8853 53.7582 22.8003 52.8958 22.9659 52.0637C23.1314 51.2317 23.5401 50.4674 24.1401 49.8676C24.7402 49.2677 25.5047 48.8592 26.337 48.6937C27.1694 48.5282 28.0321 48.6131 28.8161 48.9378C29.6001 49.2624 30.2702 49.8122 30.7417 50.5176C31.2132 51.2229 31.4648 52.0522 31.4648 52.9005C31.4648 54.0381 31.0128 55.1291 30.2081 55.9335C29.4034 56.7379 28.3121 57.1898 27.1741 57.1898Z" fill="white"/>
<path d="M38.6162 34.3139C37.4793 34.3105 36.3899 33.8575 35.586 33.0538C34.782 32.2502 34.3289 31.1612 34.3255 30.0246C34.3255 29.6454 34.1748 29.2818 33.9066 29.0136C33.6384 28.7455 33.2746 28.5949 32.8953 28.5949H21.4534C21.0741 28.5949 20.7103 28.7455 20.4421 29.0136C20.1739 29.2818 20.0232 29.6454 20.0232 30.0246C20.0198 31.1612 19.5666 32.2502 18.7627 33.0538C17.9588 33.8575 16.8694 34.3105 15.7325 34.3139C15.3532 34.3139 14.9894 34.4645 14.7212 34.7326C14.4529 35.0007 14.3022 35.3644 14.3022 35.7436V70.0574C14.3022 70.4366 14.4529 70.8003 14.7212 71.0684C14.9894 71.3366 15.3532 71.4872 15.7325 71.4872C16.8694 71.4906 17.9588 71.9436 18.7627 72.7472C19.5666 73.5509 20.0198 74.6399 20.0232 75.7764C20.0232 76.1556 20.1739 76.5193 20.4421 76.7874C20.7103 77.0555 21.0741 77.2062 21.4534 77.2062H32.8953C33.2746 77.2062 33.6384 77.0555 33.9066 76.7874C34.1748 76.5193 34.3255 76.1556 34.3255 75.7764C34.3289 74.6399 34.782 73.5509 35.586 72.7472C36.3899 71.9436 37.4793 71.4906 38.6162 71.4872C38.9955 71.4872 39.3593 71.3366 39.6275 71.0684C39.8957 70.8003 40.0464 70.4366 40.0464 70.0574V35.7436C40.0464 35.3644 39.8957 35.0007 39.6275 34.7326C39.3593 34.4645 38.9955 34.3139 38.6162 34.3139ZM37.186 68.7707C35.8124 69.0526 34.5518 69.7312 33.5604 70.7223C32.5689 71.7134 31.8901 72.9736 31.6081 74.3467H22.7406C22.4586 72.9736 21.7798 71.7134 20.7883 70.7223C19.7968 69.7312 18.5362 69.0526 17.1627 68.7707V37.0304C18.5362 36.7485 19.7968 36.0699 20.7883 35.0787C21.7798 34.0876 22.4586 32.8274 22.7406 31.4544H31.6081C31.8901 32.8274 32.5689 34.0876 33.5604 35.0787C34.5518 36.0699 35.8124 36.7485 37.186 37.0304V68.7707Z" fill="white"/>
</g>
</g>
<defs>
<clipPath id="clip0">
<path d="M0 0H82V64.3467C82 69.8695 77.5229 74.3467 72 74.3467H0V0Z" fill="white"/>
</clipPath>
</defs>
</svg>
