<svg width="81" height="71" viewBox="0 0 81 71" fill="none" xmlns="http://www.w3.org/2000/svg">
<g opacity="0.35">
<g clip-path="url(#clip0)">
<path d="M62.5805 57.4311H60.72C60.0202 57.4323 59.3942 57.0088 59.1538 56.3711C58.9475 55.846 58.7259 55.3324 58.4874 54.8237C58.191 54.2051 58.3263 53.4727 58.8257 52.9925L60.1517 51.7044C62.1203 49.7778 62.1167 46.6708 60.1433 44.7487L55.3635 40.1115C53.3797 38.1983 50.1758 38.1983 48.1921 40.1115L46.8661 41.3963C46.3701 41.879 45.6164 42.01 44.9785 41.7245C44.4542 41.4932 43.9248 41.2782 43.3818 41.0682C42.7212 40.8366 42.2816 40.227 42.2841 39.5454V37.7404C42.2841 35.0217 40.0124 32.8178 37.2101 32.8178H30.4446C27.6422 32.8178 25.3705 35.0217 25.3705 37.7404V39.5454C25.3718 40.2243 24.9352 40.8317 24.2779 41.0649C23.7366 41.2651 23.2072 41.48 22.6829 41.7114C22.0451 41.9975 21.2911 41.8665 20.7953 41.3832L19.4676 40.0968C17.4841 38.1847 14.2815 38.1847 12.2979 40.0968L7.51812 44.7487C5.54599 46.6732 5.54599 49.7815 7.51812 51.706L8.84246 52.9925C9.34184 53.4727 9.47715 54.2051 9.18073 54.8237C8.94225 55.3324 8.72068 55.846 8.51264 56.3727C8.27057 57.0141 7.63863 57.4381 6.9346 57.4311H5.0741C2.27172 57.4311 0 59.635 0 62.3538V68.9173C0 71.6361 2.27172 73.84 5.0741 73.84H6.9346C7.6344 73.8388 8.26042 74.2623 8.5008 74.9C8.70715 75.4251 8.92872 75.9387 9.1672 76.4474C9.46362 77.066 9.32831 77.7984 8.82893 78.2786L7.5029 79.5667C5.53203 81.491 5.53203 84.5981 7.5029 86.5224L12.2827 91.1596C14.2665 93.0728 17.4703 93.0728 19.4541 91.1596L20.7801 89.8748C21.2761 89.3921 22.0298 89.2611 22.6677 89.5466C23.192 89.7779 23.7214 89.9929 24.2643 90.2029C24.9284 90.4318 25.3718 91.042 25.3705 91.7257V93.5307C25.3705 96.2494 27.6422 98.4533 30.4446 98.4533H37.2101C40.0124 98.4533 42.2841 96.2494 42.2841 93.5307V91.7257C42.2829 91.0468 42.7195 90.4394 43.3768 90.2062C43.918 90.006 44.4474 89.7911 44.9717 89.5597C45.6096 89.2736 46.3635 89.4046 46.8593 89.8879L48.187 91.1743C50.1733 93.0833 53.3751 93.0796 55.3567 91.1661L60.1365 86.529C62.1087 84.6044 62.1087 81.4962 60.1365 79.5716L58.8122 78.2852C58.3128 77.805 58.1775 77.0725 58.4739 76.4539C58.7124 75.9452 58.934 75.4316 59.1505 74.9049C59.3891 74.264 60.0175 73.8375 60.72 73.84H62.5805C65.3829 73.84 67.6546 71.6361 67.6546 68.9173V62.3538C67.6546 59.635 65.3829 57.4311 62.5805 57.4311ZM64.2719 68.9173C64.2719 69.8235 63.5146 70.5582 62.5805 70.5582H60.72C58.6175 70.5658 56.7358 71.8266 55.9842 73.7317C55.8049 74.1911 55.6111 74.6434 55.4024 75.0887C54.5328 76.9511 54.9362 79.1409 56.4172 80.5955L57.7399 81.8803C58.4008 82.5207 58.4014 83.5598 57.7411 84.201C57.7407 84.2014 57.7403 84.2018 57.7399 84.2022L52.9601 88.8394C52.2996 89.4799 51.2289 89.4799 50.5685 88.8394L49.2424 87.5545C47.7437 86.1165 45.4857 85.7249 43.5662 86.57C43.1078 86.7718 42.641 86.9605 42.1708 87.1345C40.2086 87.8634 38.9099 89.6873 38.9014 91.7257V93.5307C38.9014 94.4368 38.1441 95.1715 37.2101 95.1715H30.4446C29.5105 95.1715 28.7532 94.4368 28.7532 93.5307V91.7257C28.7454 89.6858 27.4458 87.8604 25.4821 87.1312C25.0085 86.9573 24.5424 86.7692 24.0834 86.5667C22.1637 85.7235 19.9067 86.1151 18.4071 87.5513L17.0828 88.8344C16.4227 89.4756 15.3517 89.4762 14.6908 88.8357C14.6904 88.8352 14.6899 88.8348 14.6895 88.8344L9.90971 84.2022C9.24945 83.5614 9.24945 82.5228 9.90971 81.882L11.2341 80.5955C12.7151 79.1409 13.1184 76.9511 12.2489 75.0887C12.0408 74.644 11.8463 74.1911 11.667 73.735C10.9173 71.8293 9.03697 70.5672 6.9346 70.5582H5.0741C4.14004 70.5582 3.38273 69.8235 3.38273 68.9173V62.3538C3.38273 61.4476 4.14004 60.7129 5.0741 60.7129H6.9346C9.03718 60.7053 10.9188 59.4445 11.6704 57.5394C11.8497 57.08 12.0436 56.6277 12.2523 56.1824C13.1218 54.32 12.7182 52.1302 11.2374 50.6756L9.90802 49.3908C9.24712 48.7504 9.24649 47.7113 9.90675 47.0701C9.90718 47.0697 9.9076 47.0693 9.90802 47.0689L14.6878 42.4317C15.3483 41.7912 16.4189 41.7912 17.0794 42.4317L18.4054 43.7166C19.9042 45.1546 22.1622 45.5462 24.0817 44.7011C24.54 44.4993 25.0068 44.3106 25.477 44.1366C27.442 43.4099 28.7437 41.5855 28.7532 39.5454V37.7404C28.7532 36.8343 29.5105 36.0996 30.4446 36.0996H37.2101C38.1441 36.0996 38.9014 36.8343 38.9014 37.7404V39.5454C38.9092 41.5853 40.2088 43.4107 42.1725 44.1399C42.6461 44.3138 43.1123 44.5019 43.5713 44.7044C45.4908 45.5494 47.7487 45.1579 49.2475 43.7198L50.5718 42.4367C51.2349 41.8004 52.3021 41.8004 52.9651 42.4367L57.7449 47.0738C58.4052 47.7146 58.4052 48.7533 57.7449 49.394L56.4206 50.6805C54.9398 52.1351 54.5362 54.3249 55.4058 56.1873C55.6138 56.632 55.8083 57.0849 55.9876 57.541C56.739 59.4447 58.6189 60.7047 60.72 60.7129H62.5805C63.5146 60.7129 64.2719 61.4476 64.2719 62.3538V68.9173Z" fill="white"/>
<path d="M49.0157 64.9792C48.9988 64.5854 48.9701 64.1932 48.921 63.8027C48.8669 63.3826 48.8026 62.9658 48.713 62.5572C48.6538 62.2898 48.576 62.0256 48.5015 61.7598C48.4068 61.4217 48.3003 61.0886 48.1819 60.7605C48.099 60.5324 48.0127 60.3059 47.9248 60.0811C47.707 59.5556 47.458 59.0427 47.1789 58.5453C47.1569 58.5075 47.1434 58.4665 47.1214 58.4288C46.6814 57.669 46.1719 56.9489 45.5992 56.2776C45.5501 56.2185 45.4943 56.1627 45.4436 56.1053C45.2101 55.8378 44.97 55.5785 44.718 55.3308C44.586 55.1978 44.4473 55.0731 44.3086 54.9451C44.1395 54.7925 43.9704 54.6416 43.8012 54.4972C43.5959 54.3243 43.3869 54.1569 43.1737 53.9951L42.8964 53.7949C40.2792 51.8931 37.0971 50.8659 33.8273 50.8675C33.6581 50.8675 33.489 50.8922 33.3198 50.8987C32.9596 50.9086 32.5976 50.9283 32.234 50.9644C32.0429 50.984 31.85 51.0054 31.6589 51.0316C31.1075 51.102 30.5604 51.2013 30.02 51.3286C21.8759 53.3703 16.9798 61.4308 19.0843 69.3318C20.4712 74.5384 24.6641 78.6029 30.0318 79.9441C30.0589 79.9441 30.0876 79.9523 30.1164 79.9589C30.7006 80.1002 31.2923 80.2099 31.8889 80.287C32.283 80.3346 32.6771 80.3445 33.0729 80.3625C33.3368 80.3756 33.5803 80.4134 33.856 80.4134C34.338 80.4134 34.8387 80.3822 35.3495 80.333C35.4036 80.333 35.4577 80.3182 35.5186 80.3116C35.9296 80.2673 36.3457 80.2083 36.7702 80.1262C36.9394 80.095 37.0967 80.054 37.259 80.0179C37.5567 79.9506 37.8527 79.8801 38.1572 79.7931C38.3939 79.7242 38.624 79.6438 38.8557 79.565C39.0874 79.4863 39.3276 79.4009 39.5677 79.3123C39.8079 79.2237 40.0092 79.122 40.2274 79.0235C40.5115 78.8972 40.794 78.7725 41.0731 78.6248H41.0832C42.6617 77.805 44.1196 76.7835 45.4182 75.5875C45.7689 75.27 46.074 74.9078 46.3248 74.5111C47.6449 72.4579 48.5121 70.1617 48.872 67.767C48.9193 67.4504 48.9616 67.1337 48.987 66.8104C49.0106 66.5134 49.0276 66.2181 49.0343 65.9227C49.0343 65.8292 49.0479 65.7406 49.0479 65.647C49.0495 65.4157 49.0259 65.2023 49.0157 64.9792ZM45.6448 66.054C45.6448 66.1902 45.633 66.3263 45.6245 66.4609C45.5941 66.858 45.5417 67.2551 45.4723 67.6538C44.8402 71.0654 42.6568 74.019 39.5288 75.6942C39.3191 75.8008 39.1128 75.9009 38.9064 75.9928L38.766 76.0585C37.7834 76.4912 36.7461 76.7958 35.681 76.9642C35.6066 76.9757 35.5305 76.9888 35.4543 76.9987C35.2429 77.0282 35.0349 77.0528 34.8285 77.0709C34.5562 77.0939 34.2822 77.107 34.0032 77.1119C33.8848 77.1119 33.7681 77.1119 33.6497 77.1119C33.2494 77.1074 32.8499 77.0834 32.4522 77.0397L32.2492 77.0167C31.7841 76.9577 31.3228 76.8734 30.8674 76.764C24.5328 75.191 20.712 68.9339 22.3332 62.7884C23.4044 58.7276 26.6709 55.5554 30.8555 54.512V54.5103C31.8272 54.2726 32.8251 54.1512 33.8273 54.1493C34.3108 54.152 34.7939 54.1838 35.2734 54.2445C35.4019 54.2593 35.5288 54.2822 35.6556 54.3003C36.021 54.3561 36.3829 54.4266 36.7398 54.5152C36.8565 54.5448 36.9732 54.571 37.0882 54.6022C37.9876 54.8541 38.8534 55.2077 39.6675 55.6557C39.7978 55.7295 39.9246 55.8066 40.0532 55.8837C40.3204 56.0478 40.5792 56.2119 40.8346 56.399C40.9716 56.4958 41.1103 56.591 41.2422 56.6943C41.5741 56.9515 41.8919 57.2254 42.1944 57.5148C42.3145 57.6329 42.4245 57.7626 42.5412 57.8856C42.7357 58.0907 42.9251 58.3008 43.1061 58.5223C43.2312 58.6749 43.3513 58.8324 43.4697 58.9916C43.6389 59.2279 43.808 59.474 43.9602 59.7234C44.0448 59.8596 44.1294 59.9925 44.2156 60.132C44.4338 60.5215 44.6281 60.9231 44.7975 61.3348C44.8651 61.4989 44.9226 61.6629 44.9835 61.827C45.0934 62.129 45.1882 62.4342 45.271 62.7427C45.3133 62.9067 45.3607 63.0528 45.3962 63.2119C45.4949 63.6554 45.5666 64.1042 45.611 64.5558C45.6211 64.6756 45.6211 64.797 45.6296 64.9168C45.6533 65.2942 45.66 65.6733 45.6448 66.054Z" fill="white"/>
<path d="M96.4077 34.4587H91.0884C90.3791 34.4656 89.7446 34.0322 89.512 33.3822C88.9875 31.8581 88.3528 30.3714 87.6126 28.9338C87.2985 28.3129 87.4293 27.5665 87.9374 27.0812L91.7091 23.4171C93.6889 21.495 93.6889 18.3802 91.7091 16.4581L84.5174 9.49254C82.5362 7.57188 79.3256 7.57188 77.3444 9.49254L73.5743 13.1484C73.0747 13.6411 72.3064 13.7687 71.6665 13.4651C70.1844 12.7434 68.6516 12.1243 67.0795 11.6126C66.4067 11.3892 65.9568 10.7731 65.9632 10.0833V4.92267C65.9632 2.20392 63.6914 0 60.8891 0H50.7409C47.9385 0 45.6668 2.20392 45.6668 4.92267V10.0833C45.674 10.7714 45.2274 11.3869 44.5572 11.6126C42.986 12.1241 41.4536 12.7427 39.9719 13.4635C39.332 13.7693 38.5622 13.6424 38.0624 13.1484L34.2856 9.48926C32.302 7.57414 29.096 7.57414 27.1125 9.48926L19.9343 16.4532C17.9535 18.3755 17.9535 21.4915 19.9343 23.4138L25.4803 28.8042C26.1512 29.4347 27.222 29.4183 27.8719 28.7672C28.506 28.1322 28.5074 27.1239 27.8753 26.4872L22.3259 21.0986C21.6657 20.4578 21.6657 19.4191 22.3259 18.7783L29.5041 11.8144C30.1646 11.1738 31.2352 11.1738 31.8957 11.8144L35.6742 15.4736C37.203 16.9656 39.5455 17.3385 41.4857 16.399C42.8255 15.7482 44.2107 15.1895 45.6313 14.727C47.6816 14.0536 49.0584 12.1834 49.0495 10.0833V4.92267C49.0495 4.01649 49.8068 3.28178 50.7409 3.28178H60.8891C61.8231 3.28178 62.5804 4.01649 62.5804 4.92267V10.0833C62.5718 12.183 63.9485 14.0526 65.9987 14.7253C67.4198 15.1881 68.8057 15.7472 70.1459 16.399C72.0865 17.3335 74.4259 16.9602 75.9557 15.4719L79.7343 11.8144C80.3947 11.1738 81.4654 11.1738 82.1259 11.8144L89.304 18.78C89.9632 19.4205 89.9632 20.458 89.304 21.0986L85.5323 24.7643C83.9959 26.2483 83.6117 28.5199 84.5783 30.4024C85.2492 31.7022 85.8251 33.0461 86.3018 34.4242C86.9955 36.4138 88.9234 37.7495 91.0884 37.7404H96.4077C97.3418 37.7404 98.0991 38.4752 98.0991 39.3813V49.2267C98.0991 50.1329 97.3418 50.8676 96.4077 50.8676H91.0884C88.9241 50.8591 86.997 52.1948 86.3035 54.1838C85.8268 55.5626 85.2502 56.9071 84.5783 58.2073C83.6134 60.0898 83.9984 62.3601 85.534 63.8437L89.3057 67.5095C89.966 68.1502 89.966 69.1889 89.3057 69.8297L82.1242 76.7936C81.4639 77.4331 80.3945 77.4331 79.7343 76.7936L74.1764 71.4131C73.5265 70.7621 72.4557 70.7457 71.7848 71.3762C71.1138 72.0067 71.0969 73.0456 71.7468 73.6964C71.7603 73.71 71.7743 73.7235 71.7882 73.7366L77.3444 79.1171C79.3256 81.0378 82.5362 81.0378 84.5174 79.1171L91.6956 72.1548C93.6764 70.2325 93.6764 67.1165 91.6956 65.1942L87.9289 61.5333C87.4215 61.0485 87.2902 60.3033 87.6025 59.6824C88.3465 58.2446 88.9846 56.7575 89.512 55.2323C89.7423 54.5797 90.3774 54.1432 91.0884 54.1493H96.4077C99.2101 54.1493 101.482 51.9454 101.482 49.2267V39.3813C101.482 36.6626 99.2101 34.4587 96.4077 34.4587Z" fill="white"/>
<path d="M71.3618 29.2209C62.77 20.903 48.8594 20.903 40.2677 29.2209C39.6188 29.8728 39.6374 30.9116 40.3093 31.5411C40.9647 32.1552 42.0039 32.1552 42.6593 31.5411C49.8761 24.4451 61.6559 24.3686 68.9702 31.3701C76.2845 38.3715 76.3633 49.7997 69.1465 56.8957C69.0881 56.9532 69.0294 57.0102 68.9702 57.0668C68.2983 57.6965 68.2797 58.7352 68.9287 59.387C69.5778 60.0389 70.6484 60.0569 71.3203 59.4272C71.3343 59.4141 71.3482 59.4005 71.3618 59.387C79.9355 51.0517 79.9355 37.5562 71.3618 29.2209Z" fill="white"/>
</g>
</g>
<defs>
<clipPath id="clip0">
<rect width="81" height="71" rx="10" fill="white"/>
</clipPath>
</defs>
</svg>
