<svg width="82" height="59" viewBox="0 0 82 59" fill="none" xmlns="http://www.w3.org/2000/svg">
<path d="M47.4149 11.1591C40.235 11.1591 33.2164 13.2971 27.2465 17.3026C21.2767 21.3082 16.6238 27.0014 13.8761 33.6623C11.1285 40.3233 10.4096 47.6528 11.8103 54.7241C13.2111 61.7953 16.6685 68.2907 21.7454 73.3887C26.8224 78.4868 33.2908 81.9587 40.3327 83.3652C47.3746 84.7718 54.6738 84.0499 61.3071 81.2908C67.9404 78.5318 73.6101 73.8594 77.599 67.8647C81.5879 61.87 83.717 54.8222 83.717 47.6124C83.706 37.9478 79.8778 28.6822 73.0722 21.8482C66.2666 15.0143 57.0394 11.1702 47.4149 11.1591ZM61.0571 78.553C60.0966 75.684 58.2633 73.1903 55.8158 71.4236C53.3684 69.657 50.4302 68.7066 47.416 68.7066C44.4018 68.7066 41.4637 69.657 39.0162 71.4236C36.5687 73.1903 34.7354 75.684 33.7749 78.553C32.0314 77.7766 30.3567 76.8528 28.769 75.7915C30.3947 73.2093 31.2572 70.2167 31.256 67.1618C31.2515 62.8392 29.5396 58.6949 26.496 55.6382C23.4524 52.5814 19.3255 50.8619 15.0208 50.8567H13.8644C13.7621 49.7877 13.7058 48.706 13.7058 47.6124C13.7087 46.1165 13.8099 44.6224 14.0088 43.1398H80.8202C81.0197 44.6223 81.1212 46.1164 81.124 47.6124C81.124 48.7082 81.0669 49.7899 80.9654 50.859H79.809C75.5048 50.8639 71.3783 52.5829 68.3346 55.6388C65.2909 58.6948 63.5785 62.8382 63.573 67.1603C63.5722 70.2152 64.4346 73.2077 66.0601 75.79C64.4733 76.8515 62.7996 77.7758 61.0571 78.553ZM47.4149 13.763C55.1282 13.7734 62.6054 16.4356 68.6025 21.3067C74.5996 26.1777 78.7549 32.9638 80.3772 40.536H14.4526C16.0749 32.9638 20.2302 26.1777 26.2273 21.3067C32.2244 16.4356 39.7016 13.7734 47.4149 13.763ZM14.22 53.4605H15.0208C18.6378 53.4647 22.1055 54.9094 24.663 57.4777C27.2206 60.046 28.6591 63.5282 28.663 67.1603C28.6657 69.6669 27.9761 72.1253 26.6708 74.262C20.1041 69.1107 15.6688 61.7007 14.22 53.4605ZM36.185 79.5209C36.9507 77.1355 38.4502 75.0555 40.4677 73.58C42.4852 72.1045 44.9168 71.3096 47.4127 71.3096C49.9086 71.3096 52.3401 72.1045 54.3576 73.58C56.3751 75.0555 57.8746 77.1355 58.6404 79.5209C51.3764 82.1049 43.4489 82.1049 36.185 79.5209ZM68.159 74.262C66.8535 72.1253 66.1636 69.667 66.166 67.1603C66.1702 63.5281 67.6089 60.046 70.1665 57.4777C72.7242 54.9094 76.1919 53.4647 79.809 53.4605H80.6098C79.161 61.7007 74.7257 69.1107 68.159 74.262Z" fill="white"/>
<path d="M47.415 0C38.0372 0 28.87 2.79242 21.0726 8.02414C13.2753 13.2559 7.198 20.6919 3.60927 29.3919C0.020544 38.092 -0.91843 47.6652 0.911086 56.9011C2.7406 66.137 7.25644 74.6208 13.8875 81.2795C20.5186 87.9382 28.9672 92.4728 38.1648 94.31C47.3624 96.1471 56.896 95.2042 65.5599 91.6005C74.2239 87.9969 81.6291 81.8943 86.8391 74.0645C92.0491 66.2346 94.8299 57.0293 94.8299 47.6124C94.8156 34.9892 89.8156 22.8872 80.9266 13.9612C72.0377 5.03528 59.9858 0.0143737 47.415 0V0ZM47.415 92.621C38.55 92.621 29.8842 89.9813 22.5132 85.0357C15.1423 80.0901 9.39736 73.0607 6.0049 64.8365C2.61243 56.6122 1.7248 47.5625 3.45427 38.8317C5.18373 30.1009 9.45261 22.0811 15.7211 15.7865C21.9895 9.49195 29.976 5.2053 38.6707 3.46863C47.3653 1.73196 56.3775 2.62329 64.5676 6.02988C72.7578 9.43648 79.758 15.2053 84.6831 22.607C89.6082 30.0086 92.2369 38.7106 92.2369 47.6124C92.2234 59.5453 87.4968 70.9855 79.0939 79.4233C70.6911 87.8611 59.2984 92.6074 47.415 92.621Z" fill="white"/>
<path d="M52.2306 48.6353H42.5994C40.9784 48.6353 39.4237 49.282 38.2775 50.433C37.1313 51.584 36.4873 53.1451 36.4873 54.7729C36.4873 56.4007 37.1313 57.9618 38.2775 59.1128C39.4237 60.2638 40.9784 60.9104 42.5994 60.9104H52.2306C53.8516 60.9104 55.4062 60.2638 56.5525 59.1128C57.6987 57.9618 58.3426 56.4007 58.3426 54.7729C58.3426 53.1451 57.6987 51.584 56.5525 50.433C55.4062 49.282 53.8516 48.6353 52.2306 48.6353ZM52.2306 58.3066H42.5994C41.6661 58.3066 40.771 57.9343 40.111 57.2716C39.4511 56.6089 39.0803 55.7101 39.0803 54.7729C39.0803 53.8357 39.4511 52.9369 40.111 52.2742C40.771 51.6115 41.6661 51.2391 42.5994 51.2391H52.2306C53.1639 51.2391 54.059 51.6115 54.7189 52.2742C55.3789 52.9369 55.7496 53.8357 55.7496 54.7729C55.7496 55.7101 55.3789 56.6089 54.7189 57.2716C54.059 57.9343 53.1639 58.3066 52.2306 58.3066Z" fill="white"/>
</svg>
