<svg width="78" height="88" viewBox="0 0 78 88" fill="none" xmlns="http://www.w3.org/2000/svg">
<g opacity="0.35">
<g clip-path="url(#clip0)">
<path d="M71.8025 41.2098C57.64 41.2098 46.1587 52.7413 46.1587 66.9659C46.1587 81.1904 57.64 92.722 71.8025 92.722C85.9651 92.722 97.4464 81.1904 97.4464 66.9659C97.4305 52.748 85.9584 41.2257 71.8025 41.2098ZM71.8025 89.2878C59.5282 89.2878 49.5779 79.2939 49.5779 66.9659C49.5779 54.6378 59.5282 44.6439 71.8025 44.6439C84.0768 44.6439 94.0272 54.6378 94.0272 66.9659C94.013 79.2881 84.071 89.2736 71.8025 89.2878Z" fill="white"/>
<path d="M60.3364 76.0534L80.8523 55.4477L83.2698 57.8757L62.7547 78.4815L60.3364 76.0534Z" fill="white"/>
<path d="M78.641 68.6829C75.8086 68.6829 73.5122 70.9894 73.5122 73.8341C73.5122 76.6789 75.8086 78.9854 78.641 78.9854C81.4733 78.9854 83.7697 76.6789 83.7697 73.8341C83.7697 70.9894 81.4733 68.6829 78.641 68.6829ZM78.641 75.5512C77.6969 75.5512 76.9314 74.7824 76.9314 73.8341C76.9314 72.8859 77.6969 72.1171 78.641 72.1171C79.5851 72.1171 80.3506 72.8859 80.3506 73.8341C80.3506 74.7824 79.5851 75.5512 78.641 75.5512Z" fill="white"/>
<path d="M64.9642 65.2488C67.7966 65.2488 70.093 62.9423 70.093 60.0976C70.093 57.2528 67.7966 54.9464 64.9642 54.9464C62.1319 54.9464 59.8354 57.2528 59.8354 60.0976C59.8354 62.9423 62.1319 65.2488 64.9642 65.2488ZM64.9642 58.3805C65.9083 58.3805 66.6738 59.1493 66.6738 60.0976C66.6738 61.0458 65.9083 61.8146 64.9642 61.8146C64.0201 61.8146 63.2546 61.0458 63.2546 60.0976C63.2546 59.1493 64.0201 58.3805 64.9642 58.3805Z" fill="white"/>
<path d="M75.2221 99.5902H13.6769C10.8445 99.5902 8.54808 97.2838 8.54808 94.439V8.58537C8.54808 5.74062 10.8445 3.43415 13.6769 3.43415H61.5453V18.8878C61.5453 19.6273 62.0161 20.2829 62.714 20.5168C63.4127 20.7508 64.1807 20.5093 64.6223 19.9182L68.3837 14.8819L72.1451 19.9182C72.4673 20.35 72.974 20.6049 73.5125 20.6049C73.6961 20.604 73.8781 20.5747 74.0526 20.5177C74.7512 20.2838 75.2221 19.6273 75.2221 18.8878V3.43415C78.0544 3.43415 80.3508 5.74062 80.3508 8.58537V39.4927H83.77V8.58537C83.7642 3.84581 79.9409 0.00586891 75.2221 0H13.6769C8.95795 0.00586891 5.13475 3.84581 5.12891 8.58537V94.439C5.13475 99.1786 8.95795 103.019 13.6769 103.024H75.2221C79.9409 103.019 83.7642 99.1786 83.77 94.439H80.3508C80.3508 97.2838 78.0544 99.5902 75.2221 99.5902ZM71.8029 13.7366L69.751 10.9891C69.4146 10.5783 68.9129 10.341 68.3837 10.341C67.8545 10.341 67.3528 10.5783 67.0164 10.9891L64.9645 13.7366V3.43415H71.8029V13.7366Z" fill="white"/>
<path d="M15.3862 10.3024H22.2246V13.7366H15.3862V10.3024Z" fill="white"/>
<path d="M25.644 10.3024H42.7399V13.7366H25.644V10.3024Z" fill="white"/>
<path d="M15.3862 17.1707H42.7397V20.6049H15.3862V17.1707Z" fill="white"/>
<path d="M15.3862 30.9073H59.8355V34.3415H15.3862V30.9073Z" fill="white"/>
<path d="M63.2549 30.9073H73.5124V34.3415H63.2549V30.9073Z" fill="white"/>
<path d="M15.3862 41.2098H49.578V44.6439H15.3862V41.2098Z" fill="white"/>
<path d="M15.3862 51.5122H42.7397V54.9464H15.3862V51.5122Z" fill="white"/>
<path d="M15.3862 61.8146H39.3205V65.2488H15.3862V61.8146Z" fill="white"/>
<path d="M15.3862 78.9854H32.4821V82.4195H15.3862V78.9854Z" fill="white"/>
<path d="M15.3862 85.8536H32.4821V89.2878H15.3862V85.8536Z" fill="white"/>
</g>
</g>
<defs>
<clipPath id="clip0">
<path d="M0 0H78V78C78 83.5229 73.5229 88 68 88H0V0Z" fill="white"/>
</clipPath>
</defs>
</svg>
