<svg width="82" height="76" viewBox="0 0 82 76" fill="none" xmlns="http://www.w3.org/2000/svg">
<g opacity="0.8">
<g clip-path="url(#clip0)">
<path d="M87.6131 20.1964C87.311 19.1063 86.5739 18.177 85.5655 17.6136C84.5563 17.0474 83.3565 16.8943 82.2309 17.1874C81.1068 17.4812 80.1491 18.1957 79.5684 19.1742L78.8371 20.4092C78.1422 20.0218 77.2544 20.2498 76.8481 20.9206L73.1328 27.0654L71.8602 26.3558C71.5231 26.1666 71.1217 26.1153 70.746 26.2137C70.3696 26.3128 70.0497 26.5526 69.8561 26.8811C69.4598 27.5595 69.7012 28.4216 70.3975 28.8111L71.6702 29.5207L59.2376 50.4264L56.1658 58.389L54.7032 61.0425C53.8469 62.4881 53.9383 64.285 54.9374 65.6412L51.6464 69.5581L50.7251 67.3162C50.3095 66.3169 49.3475 65.6322 48.2412 65.5484C47.1342 65.4638 46.0736 65.9947 45.503 66.9184L44.9766 67.784L44.4795 62.1069C44.3653 60.7639 43.2933 59.6842 41.9149 59.5221C40.5358 59.3606 39.2302 60.1624 38.7896 61.4403L35.1915 71.9143C34.9401 72.6551 35.3515 73.4534 36.1128 73.7029C36.2556 73.7673 36.4092 73.8062 36.5663 73.8159C37.1948 73.8179 37.7547 73.4292 37.9561 72.8512L41.5392 62.3772L42.0513 68.1388C42.157 69.3682 43.0676 70.3904 44.306 70.6689C45.5444 70.9475 46.8256 70.4181 47.4777 69.3599L48.0191 68.4936L48.9261 70.7223C49.311 71.6613 50.1816 72.3315 51.2122 72.4804C52.2428 72.6294 53.2769 72.2351 53.9283 71.4458L57.3364 67.2594C57.7135 67.355 58.102 67.4028 58.4919 67.4015C60.0596 67.4132 61.5151 66.6121 62.3093 65.3003L63.772 62.9302L69.3448 56.3592L81.9088 35.1978L83.1815 35.9074C83.5207 36.0959 83.7679 36.4071 83.8686 36.7737C83.97 37.1375 83.9171 37.5256 83.7229 37.852L77.8722 47.6877C77.6515 48.0106 77.5765 48.407 77.6651 48.7854C77.7537 49.1631 77.9972 49.4895 78.34 49.6884C78.6771 49.8783 79.0785 49.9296 79.4541 49.8312C79.8305 49.7321 80.1505 49.4923 80.344 49.1638L86.1947 39.3281C86.7782 38.3488 86.936 37.1846 86.6332 36.0924C86.3304 35.0017 85.594 34.0723 84.5856 33.5089L83.3129 32.7993L86.9696 26.6538C87.3688 25.9795 87.1338 25.1188 86.4432 24.7238L87.1745 23.4889C87.7737 22.4944 87.9323 21.3066 87.6131 20.1964ZM82.0988 20.5935C82.2923 20.265 82.6137 20.0246 82.9915 19.9268C83.3672 19.8368 83.7643 19.8873 84.1028 20.0689C84.4421 20.2567 84.6892 20.5686 84.7906 20.9345C84.8834 21.299 84.8313 21.6843 84.6442 22.0128L83.9128 23.2477L81.3675 21.8284L82.0988 20.5935ZM62.1629 60.2199L61.4316 59.8083L59.2668 58.5872L61.3437 53.1943L65.951 55.7771L62.1629 60.2199ZM57.7749 64.3211C57.1571 63.9032 56.9671 63.0993 57.3364 62.4618L58.0677 61.2275L60.6124 62.6468L59.881 63.8672C59.6761 64.2123 59.3318 64.4576 58.9312 64.5442C58.5305 64.6301 58.1113 64.5498 57.7749 64.3211ZM67.6186 53.45L62.5578 50.6115L74.2591 30.94L79.3199 33.7785L67.6186 53.45ZM80.7825 31.3232L75.7218 28.4847L78.6471 23.5741L83.7079 26.4126L80.7825 31.3232Z" fill="white"/>
<path d="M23.0802 63.6114L17.903 68.6218L14.802 65.6128C14.2314 65.0625 13.3101 65.0625 12.7394 65.6128C12.4623 65.8796 12.3066 66.242 12.3066 66.6204C12.3066 66.9988 12.4623 67.3619 12.7394 67.628L15.8405 70.637C16.389 71.1651 17.1303 71.461 17.903 71.4603C18.6801 71.4644 19.4278 71.1685 19.9799 70.637L25.1428 65.6128C25.6399 65.0494 25.6063 64.2101 25.0664 63.6862C24.5257 63.1616 23.6608 63.1291 23.0802 63.6114Z" fill="white"/>
<path d="M5.85059 67.4292C5.85059 74.0924 11.417 79.4929 18.2832 79.4929C25.1494 79.4929 30.7158 74.0924 30.7158 67.4292C30.7158 66.6454 30.0609 66.0099 29.2532 66.0099C28.4454 66.0099 27.7905 66.6454 27.7905 67.4292C27.7905 72.5241 23.5339 76.6544 18.2832 76.6544C13.0325 76.6544 8.77591 72.5241 8.77591 67.4292C8.77591 62.3343 13.0325 58.204 18.2832 58.204C20.3415 58.1984 22.3448 58.8464 23.9874 60.0494C24.6338 60.52 25.5508 60.3925 26.035 59.7653C26.52 59.1381 26.3893 58.249 25.7429 57.7785C21.9756 55.037 16.9348 54.5962 12.7232 56.6392C8.51094 58.6828 5.85059 62.8602 5.85059 67.4292Z" fill="white"/>
<path d="M52.6559 11.3683C53.4637 11.3683 54.1186 10.7335 54.1186 9.94903C54.1186 9.16525 53.4637 8.52977 52.6559 8.52977H14.6267C13.819 8.52977 13.1641 9.16525 13.1641 9.94903V15.6261C13.1641 16.4106 13.819 17.0453 14.6267 17.0453H52.6559C53.4637 17.0453 54.1186 16.4106 54.1186 15.6261C54.1186 14.8423 53.4637 14.2068 52.6559 14.2068H16.0894V11.3683H52.6559Z" fill="white"/>
<path d="M19.0144 19.8838C18.2067 19.8838 17.5518 20.5193 17.5518 21.3031C17.5518 22.0876 18.2067 22.7224 19.0144 22.7224H48.2676C49.0754 22.7224 49.7303 22.0876 49.7303 21.3031C49.7303 20.5193 49.0754 19.8838 48.2676 19.8838H19.0144Z" fill="white"/>
<path d="M57.0436 29.8187H24.865C24.0573 29.8187 23.4023 30.4542 23.4023 31.238C23.4023 32.0225 24.0573 32.6572 24.865 32.6572H57.0436C57.8513 32.6572 58.5062 32.0225 58.5062 31.238C58.5062 30.4542 57.8513 29.8187 57.0436 29.8187Z" fill="white"/>
<path d="M42.4173 39.7535C42.4173 38.9697 41.7624 38.3343 40.9547 38.3343H11.7014C10.8937 38.3343 10.2388 38.9697 10.2388 39.7535C10.2388 40.538 10.8937 41.1728 11.7014 41.1728H40.9547C41.7624 41.1728 42.4173 40.538 42.4173 39.7535Z" fill="white"/>
<path d="M57.0436 38.3343H46.8049C45.9972 38.3343 45.3423 38.9697 45.3423 39.7535C45.3423 40.538 45.9972 41.1728 46.8049 41.1728H57.0436C57.8513 41.1728 58.5062 40.538 58.5062 39.7535C58.5062 38.9697 57.8513 38.3343 57.0436 38.3343Z" fill="white"/>
<path d="M26.3281 48.2691C27.1358 48.2691 27.7907 47.6343 27.7907 46.8498C27.7907 46.066 27.1358 45.4306 26.3281 45.4306H11.7014C10.8937 45.4306 10.2388 46.066 10.2388 46.8498C10.2388 47.6343 10.8937 48.2691 11.7014 48.2691H26.3281Z" fill="white"/>
<path d="M32.1785 48.2691H42.4171C43.2249 48.2691 43.8798 47.6343 43.8798 46.8498C43.8798 46.066 43.2249 45.4306 42.4171 45.4306H32.1785C31.3707 45.4306 30.7158 46.066 30.7158 46.8498C30.7158 47.6343 31.3707 48.2691 32.1785 48.2691Z" fill="white"/>
<path d="M65.8198 65.3005C65.012 65.3005 64.3571 65.936 64.3571 66.7198V80.9124C64.3571 81.6969 63.7022 82.3317 62.8945 82.3317H4.38798C3.58024 82.3317 2.92532 81.6969 2.92532 80.9124V4.27222C2.92532 3.48844 3.58024 2.85296 4.38798 2.85296H62.8945C63.7022 2.85296 64.3571 3.48844 64.3571 4.27222V30.9264C64.3571 31.7101 65.012 32.3456 65.8198 32.3456C66.6275 32.3456 67.2824 31.7101 67.2824 30.9264V4.27222C67.2824 1.92088 65.3177 0.0144348 62.8945 0.0144348H4.38798C1.96474 0.0144348 0 1.92088 0 4.27222V80.9124C0 83.2645 1.96474 85.1702 4.38798 85.1702H62.8945C65.3177 85.1702 67.2824 83.2645 67.2824 80.9124V66.7198C67.2824 65.936 66.6275 65.3005 65.8198 65.3005Z" fill="white"/>
</g>
</g>
<defs>
<clipPath id="clip0">
<path d="M0 0H82V66C82 71.5229 77.5229 76 72 76H0V0Z" fill="white"/>
</clipPath>
</defs>
</svg>
