<svg width="48" height="48" viewBox="0 0 48 48" fill="none" xmlns="http://www.w3.org/2000/svg">
<circle cx="24.9985" cy="19" r="19" fill="#67A955" fill-opacity="0.2"/>
<path d="M25.2072 26.3945H5.9585C5.57018 26.3945 5.25537 26.7092 5.25537 27.0977C5.25537 27.4861 5.57018 27.8008 5.9585 27.8008H25.2072C25.5956 27.8008 25.9103 27.486 25.9103 27.0977C25.9104 26.7092 25.5956 26.3945 25.2072 26.3945Z" fill="#3A4244"/>
<path d="M25.2072 30.8315H5.9585C5.57018 30.8315 5.25537 31.1463 5.25537 31.5347C5.25537 31.9231 5.57018 32.2378 5.9585 32.2378H25.2072C25.5956 32.2378 25.9103 31.9231 25.9103 31.5347C25.9104 31.1463 25.5956 30.8315 25.2072 30.8315Z" fill="#3A4244"/>
<path d="M15.5829 35.2686H5.9585C5.57018 35.2686 5.25537 35.5834 5.25537 35.9717C5.25537 36.3601 5.57018 36.6748 5.9585 36.6748H15.5829C15.9712 36.6748 16.286 36.3601 16.286 35.9717C16.286 35.5833 15.9712 35.2686 15.5829 35.2686Z" fill="#3A4244"/>
<path d="M43.7058 17.52H24.457C24.0687 17.52 23.7539 17.8347 23.7539 18.2231C23.7539 18.6116 24.0687 18.9263 24.457 18.9263H43.7058C44.0942 18.9263 44.4089 18.6116 44.4089 18.2231C44.4089 17.8347 44.0942 17.52 43.7058 17.52Z" fill="#3A4244"/>
<path d="M43.7057 21.9573H34.0813C33.6929 21.9573 33.3782 22.272 33.3782 22.6604C33.3782 23.0488 33.6929 23.3635 34.0813 23.3635H43.7057C44.0941 23.3635 44.4088 23.0488 44.4088 22.6604C44.4088 22.272 44.0941 21.9573 43.7057 21.9573Z" fill="#3A4244"/>
<path d="M4.35327 5.3689H18.4161C18.8044 5.3689 19.1192 5.05418 19.1192 4.66577C19.1192 4.27737 18.8044 3.96265 18.4161 3.96265H4.35327C3.96496 3.96265 3.65015 4.27737 3.65015 4.66577C3.65015 5.05418 3.96496 5.3689 4.35327 5.3689Z" fill="#3A4244"/>
<path d="M4.35327 8.88428H11.3846C11.7729 8.88428 12.0877 8.56956 12.0877 8.18115C12.0877 7.79275 11.7729 7.47803 11.3846 7.47803H4.35327C3.96496 7.47803 3.65015 7.79275 3.65015 8.18115C3.65015 8.56956 3.96496 8.88428 4.35327 8.88428Z" fill="#3A4244"/>
<path d="M26.6274 21.1523H4.53816C2.03588 21.1523 0 23.1881 0 25.6905V37.0997C0 39.6021 2.03578 41.6378 4.53816 41.6378H4.69669L3.78797 46.6834C3.70209 47.1603 3.93094 47.6354 4.35741 47.8655C4.78912 48.0983 5.31103 48.0218 5.658 47.6923L11.8799 41.7862C11.9807 41.6904 12.1126 41.6378 12.2515 41.6378H26.6273C29.1297 41.6378 31.1655 39.6021 31.1655 37.0997V25.6905C31.1657 23.1881 29.1298 21.1523 26.6274 21.1523ZM29.7593 37.0997C29.7593 38.8266 28.3543 40.2316 26.6274 40.2316H12.2516C11.7508 40.2316 11.275 40.4214 10.9117 40.7662L5.32791 46.0667L6.11691 41.686C6.2535 40.9277 5.67028 40.2315 4.90097 40.2315H4.53816C2.81128 40.2315 1.40634 38.8265 1.40634 37.0996V25.6905C1.40634 23.9636 2.81128 22.5586 4.53816 22.5586H26.6274C28.3543 22.5586 29.7593 23.9636 29.7593 25.6905V37.0997Z" fill="#3A4244"/>
<path d="M2.75831 12.5072H8.00269C8.01347 12.5072 8.0235 12.513 8.02885 12.5222L10.2688 16.3894C10.5021 16.7922 10.9193 17.0327 11.3848 17.0327C11.8504 17.0327 12.2676 16.7922 12.5009 16.3894L14.7408 12.5223C14.7462 12.5129 14.7563 12.5072 14.767 12.5072H20.0113C21.5123 12.5072 22.7333 11.2861 22.7333 9.78516V2.72194C22.7332 1.22109 21.5122 0 20.0112 0H2.75831C1.25747 0 0.036377 1.22109 0.036377 2.72194V3.01903C0.036377 3.40744 0.351189 3.72216 0.739502 3.72216C1.12781 3.72216 1.44263 3.40744 1.44263 3.01903V2.72194C1.44272 1.99641 2.03288 1.40625 2.75831 1.40625H20.0112C20.7367 1.40625 21.3269 1.99641 21.3269 2.72184V9.78506C21.3269 10.5105 20.7367 11.1007 20.0112 11.1007H14.7669C14.2562 11.1007 13.7798 11.3753 13.5238 11.8173L11.3847 15.5103L9.24572 11.8173C8.98969 11.3753 8.51344 11.1007 8.0026 11.1007H2.75822C2.03278 11.1007 1.44263 10.5105 1.44263 9.78506V6.30591C1.44263 5.9175 1.12781 5.60278 0.739502 5.60278C0.351189 5.60278 0.036377 5.9175 0.036377 6.30591V9.78516C0.036377 11.2861 1.25747 12.5072 2.75831 12.5072Z" fill="#3A4244"/>
<path d="M43.8887 13.1958H24.274C22.0086 13.1958 20.1655 15.0389 20.1655 17.3043V18.5686C20.1655 18.957 20.4803 19.2717 20.8687 19.2717C21.257 19.2717 21.5718 18.957 21.5718 18.5686V17.3043C21.5718 15.8142 22.784 14.602 24.2739 14.602H43.8887C45.3787 14.602 46.5909 15.8142 46.5909 17.3043V27.3026C46.5909 28.7927 45.3787 30.0049 43.8887 30.0049H43.5665C42.833 30.0049 42.2795 30.6685 42.4092 31.3891L43.0672 35.0424L38.2834 30.5014C37.9462 30.1812 37.5044 30.0049 37.0393 30.0049H33.7495C33.3611 30.0049 33.0464 30.3196 33.0464 30.708C33.0464 31.0964 33.3611 31.4111 33.7495 31.4111H37.0393C37.1424 31.4111 37.2404 31.4502 37.3151 31.5212L42.8399 36.7658C43.1759 37.0846 43.677 37.1529 44.0866 36.9316C44.4953 36.711 44.7145 36.2557 44.6321 35.7987L43.842 31.4112H43.8886C46.1541 31.4112 47.9971 29.5681 47.9971 27.3027V17.3043C47.9972 15.0388 46.1542 13.1958 43.8887 13.1958Z" fill="#3A4244"/>
</svg>
