<svg width="14" height="15" viewBox="0 0 14 15" fill="none" xmlns="http://www.w3.org/2000/svg">
<path d="M9.25 7.25V2.75L7 0.5L4.75 2.75V4.25H0.25V14.75H13.75V7.25H9.25ZM3.25 13.25H1.75V11.75H3.25V13.25ZM3.25 10.25H1.75V8.75H3.25V10.25ZM3.25 7.25H1.75V5.75H3.25V7.25ZM7.75 13.25H6.25V11.75H7.75V13.25ZM7.75 10.25H6.25V8.75H7.75V10.25ZM7.75 7.25H6.25V5.75H7.75V7.25ZM7.75 4.25H6.25V2.75H7.75V4.25ZM12.25 13.25H10.75V11.75H12.25V13.25ZM12.25 10.25H10.75V8.75H12.25V10.25Z" fill="#3A4244" fill-opacity="0.74"/>
</svg>
