<svg width="38" height="38" viewBox="0 0 38 38" fill="none" xmlns="http://www.w3.org/2000/svg">
<g clip-path="url(#clip0)">
<circle cx="19" cy="19" r="13" fill="#67A955" fill-opacity="0.3"/>
<path d="M19.1978 11.1476H25.0737C25.5853 11.1476 26.0015 10.7314 26.0015 10.2198V4.31872C26.0015 3.80712 25.5853 3.39097 25.0737 3.39097H19.1978C18.6862 3.39097 18.27 3.80712 18.27 4.31872V5.71495C18.27 6.02244 18.5192 6.2716 18.8267 6.2716C19.1342 6.2716 19.3833 6.02244 19.3833 5.71495V4.50427H24.8882V10.0343H19.3833V8.39325C19.3833 8.08576 19.1342 7.8366 18.8267 7.8366C18.5192 7.8366 18.27 8.08576 18.27 8.39325V10.2199C18.27 10.7314 18.6862 11.1476 19.1978 11.1476Z" fill="#3A4244"/>
<path d="M8.83106 10.2479H16.4144C16.7218 10.2479 16.971 9.99878 16.971 9.69128C16.971 9.38379 16.7218 9.13463 16.4144 9.13463H8.83106C8.52357 9.13463 8.27441 9.38379 8.27441 9.69128C8.27441 9.99878 8.52365 10.2479 8.83106 10.2479Z" fill="#3A4244"/>
<path d="M21.5208 14.3971C21.5208 14.0896 21.2717 13.8405 20.9642 13.8405H13.312C13.0045 13.8405 12.7554 14.0896 12.7554 14.3971C12.7554 14.7046 13.0045 14.9538 13.312 14.9538H20.9642C21.2716 14.9538 21.5208 14.7045 21.5208 14.3971Z" fill="#3A4244"/>
<path d="M8.83106 7.82591H16.4144C16.7218 7.82591 16.971 7.57676 16.971 7.26926C16.971 6.96177 16.7218 6.71261 16.4144 6.71261H8.83106C8.52357 6.71261 8.27441 6.96177 8.27441 7.26926C8.27441 7.57676 8.52365 7.82591 8.83106 7.82591Z" fill="#3A4244"/>
<path d="M8.83106 5.40389H16.4144C16.7218 5.40389 16.971 5.15473 16.971 4.84723C16.971 4.53974 16.7218 4.29058 16.4144 4.29058H8.83106C8.52357 4.29058 8.27441 4.53974 8.27441 4.84723C8.27441 5.15473 8.52365 5.40389 8.83106 5.40389Z" fill="#3A4244"/>
<path d="M8.83106 21.1127H20.2502C20.5577 21.1127 20.8068 20.8635 20.8068 20.5561C20.8068 20.2486 20.5577 19.9994 20.2502 19.9994H8.83106C8.52357 19.9994 8.27441 20.2486 8.27441 20.5561C8.27441 20.8635 8.52364 21.1127 8.83106 21.1127Z" fill="#3A4244"/>
<path d="M8.83106 17.9987H17.862C18.1695 17.9987 18.4187 17.7495 18.4187 17.442C18.4187 17.1345 18.1695 16.8854 17.862 16.8854H8.83106C8.52357 16.8854 8.27441 17.1345 8.27441 17.442C8.27441 17.7495 8.52364 17.9987 8.83106 17.9987Z" fill="#3A4244"/>
<path d="M25.4793 16.8854H20.2744C19.9669 16.8854 19.7178 17.1345 19.7178 17.442C19.7178 17.7495 19.9669 17.9987 20.2744 17.9987H25.4793C25.7868 17.9987 26.036 17.7495 26.036 17.442C26.036 17.1345 25.7867 16.8854 25.4793 16.8854Z" fill="#3A4244"/>
<path d="M37.3525 34.4325C37.3457 34.4259 37.3387 34.4194 37.3317 34.4131L33.9062 31.3651C34.4474 30.379 34.7563 29.2741 34.7974 28.1225C34.8083 27.8152 34.5681 27.5573 34.2609 27.5463C33.9531 27.5372 33.6958 27.7756 33.6847 28.0828C33.6004 31.3618 30.8231 34.0627 27.5375 34.0299C24.1456 34.0299 21.3861 31.2611 21.3861 27.8579C21.3347 24.5227 24.2067 21.6387 27.5375 21.6859C30.1322 21.6859 32.4611 23.3325 33.3326 25.7831C33.4357 26.0727 33.7543 26.2242 34.0436 26.1211C34.3333 26.0181 34.4845 25.6997 34.3816 25.4101C33.4518 22.7958 31.1167 20.9571 28.4145 20.6265V0.927751C28.4145 0.416152 27.9983 0 27.4867 0H6.78896C6.27736 0 5.86121 0.416152 5.86121 0.927751V2.94112H3.85913C3.34753 2.94112 2.93138 3.35727 2.93138 3.86887V5.88216H0.929215C0.417617 5.88216 0.00146484 6.29831 0.00146484 6.80991V34.579C0.00146484 35.0906 0.417617 35.5068 0.929215 35.5068H18.6539C19.1655 35.5068 19.5817 35.0906 19.5817 34.579V32.5657H21.9982C23.3318 34.1414 25.3201 35.1433 27.5375 35.1433C28.7561 35.1433 29.9325 34.842 30.9792 34.276L34.4307 37.3673C35.2515 38.1804 36.5813 38.2253 37.4047 37.4125C38.2288 36.625 38.179 35.2115 37.3525 34.4325ZM6.97451 1.1133H27.3012V20.5773C24.9353 20.6544 22.7854 21.8845 21.5006 23.8056H19.2404C18.9329 23.8056 18.6838 24.0547 18.6838 24.3622C18.6838 24.6697 18.9329 24.9189 19.2404 24.9189H20.8885C20.814 25.0884 20.7454 25.2614 20.6833 25.4382C20.4109 26.2142 20.2729 27.0283 20.2729 27.8579C20.2729 28.0782 20.2833 28.2959 20.3024 28.5113H12.5582C13.3222 27.7794 13.7996 26.7488 13.7996 25.6078V24.9189H16.8277C17.1352 24.9189 17.3843 24.6698 17.3843 24.3623C17.3843 24.0548 17.1352 23.8056 16.8277 23.8056H13.2429C12.9354 23.8056 12.6863 24.0548 12.6863 24.3623V25.6078C12.6863 27.2088 11.3896 28.5113 9.79599 28.5113H6.97451V1.1133ZM4.04468 31.4523V23.8432C4.04468 23.5357 3.79552 23.2865 3.48803 23.2865C3.18053 23.2865 2.93138 23.5357 2.93138 23.8432V31.6379C2.93138 32.1495 3.34753 32.5656 3.85913 32.5656H18.4684V34.3934H1.11477V6.99546H2.93138V21.4903C2.93138 21.7978 3.18053 22.047 3.48803 22.047C3.79552 22.047 4.04468 21.7978 4.04468 21.4903V4.05442H5.86129V29.068C5.86129 29.3755 6.11044 29.6246 6.41794 29.6246H20.4894C20.6509 30.2724 20.8989 30.886 21.2206 31.4524H4.04468V31.4523ZM36.6211 36.6217C36.2359 37.0057 35.5825 36.9666 35.1844 36.5477L31.9471 33.6482C32.4468 33.2654 32.9077 32.8053 33.2909 32.3077L36.58 35.2344C36.9596 35.5999 37.0036 36.2534 36.6211 36.6217Z" fill="#3A4244"/>
<path d="M27.5374 23.1001C24.9688 23.0635 22.7535 25.2868 22.7925 27.8579C22.7925 30.4814 24.9211 32.6157 27.5374 32.6157C30.1536 32.6157 32.2822 30.4814 32.2822 27.8579C32.2822 25.2345 30.1536 23.1001 27.5374 23.1001ZM27.5374 31.5023C25.535 31.5023 23.9058 29.8674 23.9058 27.8579C23.8754 25.8887 25.571 24.1855 27.5374 24.2134C29.5398 24.2134 31.1689 25.8482 31.1689 27.8579C31.1689 29.8674 29.5398 31.5023 27.5374 31.5023Z" fill="#3A4244"/>
</g>
<defs>
<clipPath id="clip0">
<rect width="38" height="38" fill="white"/>
</clipPath>
</defs>
</svg>
