<svg width="170" height="34" viewBox="0 0 170 34" fill="none" xmlns="http://www.w3.org/2000/svg">
<path d="M54.438 3.11792H57.2912V6.53989H56.8944V3.45589H54.8685V6.53989H54.4633L54.438 3.11792Z" fill="#3A4244"/>
<path d="M59.0047 8.31423H58.6079V3.11791H59.0047V3.8023C59.1394 3.56149 59.3371 3.36192 59.5765 3.22498C59.8159 3.08805 60.088 3.0189 60.3637 3.02497C60.6013 3.01484 60.8384 3.05509 61.0594 3.14307C61.2804 3.23105 61.4804 3.36478 61.6461 3.53549C61.8119 3.70621 61.9397 3.91005 62.0213 4.13368C62.1029 4.3573 62.1364 4.59565 62.1195 4.83312C62.1362 5.06911 62.1031 5.30598 62.0226 5.52839C61.942 5.7508 61.8157 5.95379 61.6517 6.12424C61.4878 6.29468 61.29 6.42878 61.071 6.51784C60.852 6.60691 60.6168 6.64895 60.3806 6.64127C60.1116 6.64916 59.8453 6.58619 59.6082 6.45866C59.3712 6.33114 59.1718 6.14353 59.03 5.91463L59.0047 8.31423ZM60.3553 3.37984C60.1661 3.38184 59.9793 3.42216 59.8061 3.49837C59.6329 3.57457 59.477 3.68509 59.3476 3.82325C59.2183 3.96142 59.1182 4.12437 59.0535 4.30228C58.9887 4.4802 58.9606 4.66939 58.9709 4.85846C58.9653 5.04436 58.9968 5.2295 59.0638 5.403C59.1307 5.57649 59.2317 5.73482 59.3607 5.86867C59.4897 6.00252 59.6441 6.10918 59.8149 6.18237C59.9857 6.25556 60.1695 6.2938 60.3553 6.29485C60.5437 6.29783 60.7306 6.26132 60.9041 6.18766C61.0775 6.11401 61.2337 6.00484 61.3625 5.86717C61.4913 5.7295 61.5899 5.56638 61.6519 5.38829C61.714 5.21021 61.7381 5.0211 61.7228 4.83312C61.7343 4.64639 61.7075 4.45927 61.6439 4.28332C61.5804 4.10737 61.4815 3.94633 61.3533 3.81014C61.2252 3.67395 61.0705 3.5655 60.8988 3.49149C60.7272 3.41748 60.5422 3.37948 60.3553 3.37984Z" fill="#3A4244"/>
<path d="M62.9214 4.83316C62.9527 4.37387 63.1571 3.94363 63.4932 3.6294C63.8294 3.31516 64.2721 3.14038 64.732 3.14038C65.192 3.14038 65.6347 3.31516 65.9709 3.6294C66.307 3.94363 66.5114 4.37387 66.5427 4.83316C66.5114 5.29245 66.307 5.7227 65.9709 6.03693C65.6347 6.35116 65.192 6.52594 64.732 6.52594C64.2721 6.52594 63.8294 6.35116 63.4932 6.03693C63.1571 5.7227 62.9527 5.29245 62.9214 4.83316ZM66.1291 4.83316C66.1441 4.64039 66.1191 4.4466 66.0557 4.26395C65.9922 4.08131 65.8918 3.91377 65.7606 3.77184C65.6294 3.62991 65.4703 3.51667 65.2933 3.43922C65.1163 3.36178 64.9252 3.3218 64.732 3.3218C64.5389 3.3218 64.3478 3.36178 64.1708 3.43922C63.9938 3.51667 63.8347 3.62991 63.7035 3.77184C63.5723 3.91377 63.4719 4.08131 63.4084 4.26395C63.345 4.4466 63.32 4.64039 63.335 4.83316C63.32 5.02594 63.345 5.21973 63.4084 5.40237C63.4719 5.58501 63.5723 5.75256 63.7035 5.89448C63.8347 6.03641 63.9938 6.14965 64.1708 6.2271C64.3478 6.30455 64.5389 6.34453 64.732 6.34453C64.9252 6.34453 65.1163 6.30455 65.2933 6.2271C65.4703 6.14965 65.6294 6.03641 65.7606 5.89448C65.8918 5.75256 65.9922 5.58501 66.0557 5.40237C66.1191 5.21973 66.1441 5.02594 66.1291 4.83316Z" fill="#3A4244"/>
<path d="M69.2693 6.64112C69.0163 6.673 68.7593 6.6496 68.5162 6.57254C68.2731 6.49547 68.0496 6.36656 67.8611 6.1947C67.6725 6.02284 67.5234 5.81211 67.4241 5.57702C67.3247 5.34194 67.2775 5.08809 67.2856 4.83297C67.2801 4.57895 67.3292 4.32672 67.4296 4.09335C67.53 3.85997 67.6793 3.6509 67.8673 3.48027C68.0554 3.30963 68.2779 3.18142 68.5198 3.1043C68.7617 3.02719 69.0172 3.00296 69.2693 3.03327V0.946289H69.6745V3.03327C69.9268 3.00151 70.1829 3.02472 70.4254 3.1013C70.6679 3.17788 70.891 3.30602 71.0794 3.47695C71.2678 3.64787 71.4171 3.85754 71.517 4.09159C71.6169 4.32565 71.665 4.57854 71.6582 4.83297C71.6677 5.08849 71.6215 5.34303 71.5226 5.57881C71.4237 5.81459 71.2747 6.02594 71.0858 6.19811C70.8969 6.37027 70.6728 6.49911 70.429 6.57562C70.1852 6.65214 69.9277 6.67449 69.6745 6.64112V8.33098H69.2693V6.64112ZM69.2693 3.37124C69.0669 3.34618 68.8615 3.3659 68.6675 3.42903C68.4736 3.49215 68.2959 3.59713 68.1469 3.73655C67.998 3.87597 67.8814 4.04643 67.8055 4.23588C67.7296 4.42534 67.6962 4.62917 67.7076 4.83297C67.6931 5.03755 67.7244 5.24279 67.7993 5.4337C67.8741 5.62462 67.9907 5.79639 68.1403 5.93647C68.29 6.07655 68.469 6.18141 68.6643 6.24339C68.8596 6.30536 69.0663 6.32289 69.2693 6.2947V3.37124ZM71.2446 4.83297C71.2549 4.62905 71.2204 4.42535 71.1434 4.23626C71.0664 4.04717 70.9489 3.87731 70.7992 3.73868C70.6494 3.60006 70.471 3.49605 70.2767 3.43402C70.0823 3.37199 69.8768 3.35344 69.6745 3.37969V6.2947C69.8781 6.32428 70.0857 6.3078 70.2821 6.24645C70.4785 6.1851 70.6586 6.08045 70.8092 5.94021C70.9599 5.79996 71.0772 5.62769 71.1525 5.43607C71.2279 5.24445 71.2593 5.03836 71.2446 4.83297Z" fill="#3A4244"/>
<path d="M72.401 4.82451C72.386 4.59353 72.4185 4.36192 72.4966 4.14404C72.5747 3.92617 72.6967 3.72668 72.855 3.55793C73.0133 3.38919 73.2045 3.2548 73.4168 3.16309C73.6292 3.07138 73.858 3.02431 74.0893 3.0248C74.3101 3.01553 74.5303 3.05352 74.7352 3.13622C74.9401 3.21892 75.1251 3.34443 75.2777 3.50438C75.4303 3.66432 75.547 3.85502 75.6201 4.06373C75.6932 4.27243 75.721 4.49435 75.7016 4.71466V4.91745H72.8147C72.8102 5.09709 72.8415 5.27584 72.9068 5.44322C72.9722 5.6106 73.0702 5.76327 73.1952 5.89229C73.3201 6.02131 73.4695 6.1241 73.6347 6.19464C73.7998 6.26518 73.9773 6.30207 74.1568 6.30313C74.3846 6.30614 74.6098 6.25484 74.8138 6.15346C75.0179 6.05208 75.1949 5.90355 75.3302 5.72013L75.5919 5.93136C75.3669 6.23174 75.0526 6.45297 74.6942 6.56325C74.3357 6.67353 73.9515 6.66717 73.5969 6.54509C73.2422 6.42301 72.9354 6.1915 72.7205 5.88385C72.5057 5.5762 72.3938 5.20826 72.401 4.83295V4.82451ZM75.3217 4.59637C75.3265 4.43459 75.298 4.27356 75.238 4.12324C75.1781 3.97293 75.0879 3.83653 74.9732 3.72248C74.8585 3.60843 74.7216 3.51916 74.571 3.46019C74.4204 3.40123 74.2593 3.37382 74.0977 3.37967C73.768 3.38776 73.4535 3.52021 73.2171 3.75052C72.9808 3.98083 72.84 4.29199 72.8231 4.62172L75.3217 4.59637Z" fill="#3A4244"/>
<path d="M79.2388 3.80223C79.1193 3.66761 78.9722 3.56024 78.8077 3.48735C78.6431 3.41447 78.4649 3.37778 78.2849 3.37976C78.0973 3.37933 77.9115 3.41756 77.7393 3.49209C77.567 3.56662 77.4119 3.67584 77.2836 3.81295C77.1553 3.95007 77.0566 4.11215 76.9936 4.28909C76.9306 4.46604 76.9047 4.65408 76.9174 4.84149C76.9046 5.0274 76.9304 5.21395 76.993 5.38943C77.0557 5.56491 77.1539 5.72553 77.2815 5.8612C77.4091 5.99688 77.5634 6.10468 77.7346 6.17783C77.9058 6.25099 78.0903 6.28793 78.2765 6.28632C78.4622 6.29054 78.6467 6.25589 78.8182 6.18459C78.9897 6.1133 79.1445 6.00693 79.2726 5.87231L79.5258 6.10044C79.3703 6.27784 79.1779 6.41896 78.9621 6.51385C78.7462 6.60874 78.5122 6.65509 78.2765 6.64964C78.0375 6.66223 77.7985 6.62381 77.5755 6.53693C77.3525 6.45005 77.1504 6.31669 76.9828 6.1457C76.8152 5.97472 76.6858 5.77001 76.6032 5.54515C76.5206 5.3203 76.4867 5.08044 76.5038 4.84149C76.4867 4.60254 76.5206 4.36268 76.6032 4.13783C76.6858 3.91298 76.8152 3.70827 76.9828 3.53728C77.1504 3.36629 77.3525 3.23294 77.5755 3.14605C77.7985 3.05917 78.0375 3.02075 78.2765 3.03334C78.5082 3.024 78.739 3.06788 78.9512 3.16161C79.1633 3.25535 79.3512 3.39644 79.5005 3.5741L79.2388 3.80223Z" fill="#3A4244"/>
<path d="M82.7925 3.80215C82.6783 3.67201 82.5383 3.56719 82.3813 3.49444C82.2243 3.42168 82.0538 3.38259 81.8808 3.37968C81.6928 3.37799 81.5064 3.41537 81.3336 3.48947C81.1607 3.56356 81.0051 3.67276 80.8766 3.81015C80.748 3.94754 80.6494 4.11013 80.5869 4.28764C80.5243 4.46515 80.4993 4.65372 80.5133 4.84141C80.5002 5.11996 80.5719 5.39594 80.7189 5.63283C80.8658 5.86972 81.0812 6.05637 81.3365 6.1681C81.5917 6.27982 81.8749 6.31135 82.1484 6.25852C82.422 6.20569 82.673 6.07099 82.8685 5.87223L83.1133 6.10036C82.9585 6.27868 82.7662 6.42042 82.5502 6.51539C82.3342 6.61036 82.0998 6.65619 81.8639 6.64956C81.6256 6.66092 81.3876 6.62158 81.1656 6.53414C80.9436 6.44671 80.7426 6.31317 80.5759 6.14232C80.4092 5.97147 80.2805 5.76719 80.1985 5.54296C80.1164 5.31872 80.0827 5.07962 80.0997 4.84141C80.0812 4.60103 80.1144 4.35948 80.1969 4.13298C80.2794 3.90647 80.4093 3.70026 80.5781 3.52819C80.7468 3.35612 80.9503 3.22218 81.175 3.13536C81.3997 3.04853 81.6404 3.01084 81.8808 3.02481C82.1125 3.01611 82.343 3.06027 82.5551 3.15396C82.7672 3.24765 82.9551 3.3884 83.1048 3.56557L82.7925 3.80215Z" fill="#3A4244"/>
<path d="M83.8813 3.11792H84.2865V5.98223L86.4391 3.11792H86.878V6.53989H86.4813V3.65023L84.3119 6.53989H83.8813V3.11792Z" fill="#3A4244"/>
<path d="M87.9248 4.83296C87.9248 4.35117 88.116 3.88911 88.4564 3.54843C88.7967 3.20775 89.2583 3.01636 89.7397 3.01636C90.221 3.01636 90.6826 3.20775 91.023 3.54843C91.3634 3.88911 91.5546 4.35117 91.5546 4.83296C91.5546 5.31475 91.3634 5.77681 91.023 6.11749C90.6826 6.45817 90.221 6.64956 89.7397 6.64956C89.2583 6.64956 88.7967 6.45817 88.4564 6.11749C88.116 5.77681 87.9248 5.31475 87.9248 4.83296ZM91.1325 4.83296C91.1325 4.64988 91.0965 4.46859 91.0265 4.29945C90.9565 4.1303 90.8539 3.97661 90.7246 3.84716C90.5952 3.7177 90.4417 3.61501 90.2727 3.54494C90.1037 3.47488 89.9226 3.43882 89.7397 3.43882C89.5568 3.43882 89.3757 3.47488 89.2067 3.54494C89.0377 3.61501 88.8841 3.7177 88.7548 3.84716C88.6255 3.97661 88.5229 4.1303 88.4529 4.29945C88.3829 4.46859 88.3469 4.64988 88.3469 4.83296C88.3469 5.01604 88.3829 5.19733 88.4529 5.36647C88.5229 5.53561 88.6255 5.6893 88.7548 5.81876C88.8841 5.94822 89.0377 6.05091 89.2067 6.12097C89.3757 6.19103 89.5568 6.22709 89.7397 6.22709C89.9226 6.22709 90.1037 6.19103 90.2727 6.12097C90.4417 6.05091 90.5952 5.94822 90.7246 5.81876C90.8539 5.6893 90.9565 5.53561 91.0265 5.36647C91.0965 5.19733 91.1325 5.01604 91.1325 4.83296Z" fill="#3A4244"/>
<path d="M92.5928 3.11792H92.998V4.59655H95.0999V3.11792H95.4966V6.53989H95.0999V4.93452H92.998V6.53989H92.5928V3.11792Z" fill="#3A4244"/>
<path d="M96.5518 5.6188C96.5518 4.60488 97.6576 4.46969 98.7212 4.46969H98.9744V4.3176C98.9905 4.18762 98.9761 4.05568 98.9324 3.93222C98.8888 3.80875 98.817 3.69713 98.7229 3.60618C98.6287 3.51522 98.5148 3.44741 98.3899 3.40812C98.2651 3.36882 98.1329 3.3591 98.0037 3.37973C97.6239 3.37929 97.2584 3.52442 96.9823 3.7853L96.7628 3.52337C97.1157 3.20952 97.5739 3.04054 98.0459 3.05021C98.2171 3.03021 98.3907 3.04795 98.5543 3.1022C98.718 3.15645 98.8678 3.24589 98.9933 3.36424C99.1188 3.48259 99.2169 3.62698 99.2807 3.7873C99.3445 3.94761 99.3725 4.11996 99.3627 4.29226V5.77088C99.3584 6.02846 99.3782 6.28589 99.4218 6.53977H99.0588C99.0221 6.33333 99.0023 6.12421 98.9997 5.91452C98.8818 6.14364 98.7005 6.33398 98.4775 6.46282C98.2545 6.59166 97.9992 6.65357 97.742 6.64116C97.5956 6.65882 97.447 6.64579 97.3059 6.60291C97.1648 6.56004 97.0341 6.48824 96.9221 6.3921C96.8102 6.29595 96.7195 6.17756 96.6557 6.04443C96.592 5.9113 96.5566 5.76635 96.5518 5.6188ZM98.9744 5.06959V4.78232H98.7634C97.9699 4.78232 97.0076 4.88371 97.0076 5.62725C97.0076 6.168 97.4634 6.34544 97.8517 6.34544C98.012 6.34419 98.1703 6.30911 98.3161 6.24247C98.4619 6.17584 98.5921 6.07916 98.698 5.95875C98.804 5.83834 98.8834 5.6969 98.931 5.54369C98.9786 5.39047 98.9934 5.22892 98.9744 5.06959Z" fill="#3A4244"/>
<path d="M100.013 6.53989L100.063 6.19347C100.139 6.20284 100.216 6.20284 100.291 6.19347C100.882 6.19347 101.135 5.57667 101.135 4.27547V3.11792H103.507V6.53989H103.111V3.45589H101.524V4.43601C101.524 5.68651 101.245 6.58213 100.35 6.58213C100.237 6.57744 100.124 6.56331 100.013 6.53989Z" fill="#3A4244"/>
<path d="M104.816 3.11792H105.221V4.46136H106.141C106.985 4.46136 107.441 4.85848 107.441 5.51752C107.441 6.17657 107.002 6.53989 106.141 6.53989H104.816V3.11792ZM106.183 6.20192C106.783 6.20192 107.028 5.93999 107.028 5.51752C107.028 5.09506 106.8 4.79933 106.183 4.79933H105.221V6.20192H106.183Z" fill="#3A4244"/>
<path d="M108.387 3.11792H108.792V4.59655H110.894V3.11792H111.291V6.53989H110.894V4.93452H108.792V6.53989H108.387V3.11792Z" fill="#3A4244"/>
<path d="M112.607 3.11792H113.013V4.46136H113.958C114.802 4.46136 115.258 4.85848 115.258 5.51752C115.258 6.17657 114.802 6.53989 113.958 6.53989H112.607V3.11792ZM113.958 6.20192C114.566 6.20192 114.802 5.93999 114.802 5.51752C114.802 5.09506 114.574 4.79933 113.958 4.79933H112.996V6.20192H113.958ZM115.891 3.11792H116.288V6.53989H115.891V3.11792Z" fill="#3A4244"/>
<path d="M117.622 3.11775H118.027V5.98207L120.179 3.11775H120.618V6.53972H120.23V3.65006L118.077 6.53972H117.638L117.622 3.11775ZM118.086 1.42789L118.364 1.3772C118.391 1.55727 118.482 1.72164 118.62 1.84045C118.758 1.95925 118.934 2.02459 119.116 2.02459C119.298 2.02459 119.474 1.95925 119.611 1.84045C119.749 1.72164 119.84 1.55727 119.867 1.3772L120.146 1.42789C120.113 1.67856 119.991 1.90892 119.802 2.07587C119.612 2.24282 119.368 2.3349 119.116 2.3349C118.863 2.3349 118.619 2.24282 118.43 2.07587C118.24 1.90892 118.118 1.67856 118.086 1.42789Z" fill="#3A4244"/>
<path d="M123.699 3.11792H126.552V6.53989H126.155V3.45589H124.087V6.53989H123.682L123.699 3.11792Z" fill="#3A4244"/>
<path d="M127.599 4.83296C127.599 4.35117 127.79 3.88911 128.131 3.54843C128.471 3.20775 128.933 3.01636 129.414 3.01636C129.895 3.01636 130.357 3.20775 130.697 3.54843C131.038 3.88911 131.229 4.35117 131.229 4.83296C131.229 5.31475 131.038 5.77681 130.697 6.11749C130.357 6.45817 129.895 6.64956 129.414 6.64956C128.933 6.64956 128.471 6.45817 128.131 6.11749C127.79 5.77681 127.599 5.31475 127.599 4.83296ZM130.807 4.83296C130.807 4.46321 130.66 4.10861 130.399 3.84716C130.138 3.5857 129.783 3.43882 129.414 3.43882C129.045 3.43882 128.69 3.5857 128.429 3.84716C128.168 4.10861 128.021 4.46321 128.021 4.83296C128.021 5.20271 128.168 5.55731 128.429 5.81876C128.69 6.08021 129.045 6.22709 129.414 6.22709C129.783 6.22709 130.138 6.08021 130.399 5.81876C130.66 5.55731 130.807 5.20271 130.807 4.83296Z" fill="#3A4244"/>
<path d="M131.685 6.20192H132.09C132.503 5.55886 132.703 4.80228 132.664 4.03889V3.11792H135.061V6.20192H135.618V7.6721H135.247V6.53989H132.039V7.6721H131.685V6.20192ZM134.69 6.20192V3.45589H133.052V4.14874C133.077 4.86697 132.902 5.57804 132.546 6.20192H134.69Z" fill="#3A4244"/>
<path d="M137.391 4.76553L136.142 3.11792H136.657L137.636 4.48671L138.615 3.11792H139.105L137.872 4.74864L139.282 6.53989H138.759L137.594 5.06971L136.488 6.57369H136.007L137.391 4.76553Z" fill="#3A4244"/>
<path d="M139.687 4.83296C139.687 4.35117 139.878 3.88911 140.219 3.54843C140.559 3.20775 141.021 3.01636 141.502 3.01636C141.983 3.01636 142.445 3.20775 142.785 3.54843C143.126 3.88911 143.317 4.35117 143.317 4.83296C143.317 5.31475 143.126 5.77681 142.785 6.11749C142.445 6.45817 141.983 6.64956 141.502 6.64956C141.021 6.64956 140.559 6.45817 140.219 6.11749C139.878 5.77681 139.687 5.31475 139.687 4.83296ZM142.895 4.83296C142.895 4.46321 142.748 4.10861 142.487 3.84716C142.226 3.5857 141.871 3.43882 141.502 3.43882C141.133 3.43882 140.778 3.5857 140.517 3.84716C140.256 4.10861 140.109 4.46321 140.109 4.83296C140.109 5.20271 140.256 5.55731 140.517 5.81876C140.778 6.08021 141.133 6.22709 141.502 6.22709C141.871 6.22709 142.226 6.08021 142.487 5.81876C142.748 5.55731 142.895 5.20271 142.895 4.83296Z" fill="#3A4244"/>
<path d="M143.764 6.20192H144.169C144.582 5.55886 144.783 4.80228 144.743 4.03889V3.11792H147.158V6.20192H147.723V7.6721H147.352V6.53989H144.144V7.6721H143.773L143.764 6.20192ZM146.769 6.20192V3.45589H145.132V4.14874C145.157 4.86697 144.982 5.57804 144.625 6.20192H146.769Z" fill="#3A4244"/>
<path d="M150.382 3.11792H150.779V4.73174L152.467 3.11792H153.041L151.252 4.74864L153.227 6.53989H152.636L150.796 4.79933V6.53989H150.399L150.382 3.11792Z" fill="#3A4244"/>
<path d="M155.438 5.6188C155.438 4.60488 156.553 4.46969 157.608 4.46969H157.861V4.3176C157.877 4.18762 157.863 4.05568 157.819 3.93222C157.775 3.80875 157.704 3.69713 157.61 3.60618C157.515 3.51522 157.401 3.44741 157.277 3.40812C157.152 3.36882 157.02 3.3591 156.89 3.37973C156.511 3.37929 156.145 3.52442 155.869 3.7853L155.65 3.52337C156.002 3.20952 156.461 3.04054 156.933 3.05021C157.104 3.03021 157.277 3.04795 157.441 3.1022C157.605 3.15645 157.755 3.24589 157.88 3.36424C158.006 3.48259 158.104 3.62698 158.167 3.7873C158.231 3.94761 158.259 4.11996 158.249 4.29226V5.77088C158.245 6.02846 158.265 6.28588 158.309 6.53977H157.946C157.897 6.33427 157.866 6.12514 157.853 5.91452C157.735 6.14364 157.553 6.33398 157.33 6.46282C157.107 6.59166 156.852 6.65357 156.595 6.64116C156.451 6.65387 156.306 6.63714 156.169 6.59201C156.032 6.54687 155.906 6.47427 155.797 6.37862C155.689 6.28297 155.602 6.16628 155.54 6.03565C155.478 5.90502 155.444 5.76319 155.438 5.6188ZM157.853 5.06959V4.78232H157.599C156.806 4.78232 155.844 4.88371 155.844 5.62725C155.844 6.168 156.299 6.34544 156.688 6.34544C156.852 6.35025 157.015 6.31962 157.166 6.25566C157.316 6.19169 157.452 6.09588 157.562 5.97478C157.673 5.85367 157.756 5.71011 157.806 5.5539C157.856 5.39768 157.872 5.23249 157.853 5.06959Z" fill="#3A4244"/>
<path d="M159.541 3.11792H161.077C161.601 3.11792 162.166 3.3038 162.166 3.96285C162.167 4.14171 162.105 4.31515 161.991 4.45269C161.876 4.59022 161.717 4.68304 161.542 4.71484C161.757 4.72777 161.959 4.82247 162.106 4.97955C162.254 5.13662 162.335 5.34419 162.335 5.55977C162.335 6.17657 161.812 6.49764 161.111 6.49764H159.541V3.11792ZM161.06 4.59655C161.39 4.59655 161.77 4.43601 161.77 4.022C161.77 3.60798 161.415 3.45589 160.993 3.45589H159.946V4.59655H161.06ZM161.06 6.20192C161.542 6.20192 161.905 6.02448 161.905 5.57667C161.905 5.12885 161.542 4.92607 161.06 4.92607H159.904V6.20192H161.06Z" fill="#3A4244"/>
<path d="M164.074 3.45589H162.808V3.11792H165.728V3.45589H164.471V6.53989H164.074V3.45589Z" fill="#3A4244"/>
<path d="M166.159 4.83316C166.191 4.37387 166.395 3.94363 166.731 3.6294C167.067 3.31516 167.51 3.14038 167.97 3.14038C168.43 3.14038 168.873 3.31516 169.209 3.6294C169.545 3.94363 169.749 4.37387 169.781 4.83316C169.749 5.29245 169.545 5.7227 169.209 6.03693C168.873 6.35116 168.43 6.52594 167.97 6.52594C167.51 6.52594 167.067 6.35116 166.731 6.03693C166.395 5.7227 166.191 5.29245 166.159 4.83316ZM169.367 4.83316C169.367 4.46341 169.22 4.10881 168.959 3.84736C168.698 3.58591 168.343 3.43903 167.974 3.43903C167.605 3.43903 167.25 3.58591 166.989 3.84736C166.728 4.10881 166.581 4.46341 166.581 4.83316C166.581 5.20291 166.728 5.55751 166.989 5.81897C167.25 6.08042 167.605 6.2273 167.974 6.2273C168.343 6.2273 168.698 6.08042 168.959 5.81897C169.22 5.55751 169.367 5.20291 169.367 4.83316Z" fill="#3A4244"/>
<path d="M9.77502 29.936C8.07223 29.937 6.39872 29.4928 4.92021 28.6473C3.44171 27.8019 2.20949 26.5845 1.3456 25.1157C0.481703 23.647 0.0161008 21.9778 -0.0051014 20.2736C-0.0263036 18.5693 0.39763 16.8891 1.22472 15.3992C2.0518 13.9094 3.25335 12.6617 4.71037 11.7796C6.16739 10.8976 7.82933 10.4118 9.5316 10.3703C11.2339 10.3289 12.9174 10.7333 14.4156 11.5434C15.9137 12.3536 17.1744 13.5414 18.0728 14.9892C18.2098 15.2111 18.3016 15.4578 18.3433 15.7153C18.3849 15.9728 18.3755 16.2359 18.3155 16.4897C18.2556 16.7436 18.1462 16.9831 17.9938 17.1946C17.8414 17.4061 17.6488 17.5855 17.4271 17.7225C17.2054 17.8596 16.9589 17.9516 16.7017 17.9932C16.4444 18.0349 16.1815 18.0255 15.928 17.9655C15.6744 17.9054 15.4351 17.796 15.2238 17.6434C15.0124 17.4908 14.8332 17.2981 14.6963 17.0762C14.0295 15.9951 13.0286 15.1612 11.8455 14.7011C10.6623 14.241 9.3615 14.1798 8.14042 14.5266C6.91934 14.8735 5.84464 15.6097 5.07938 16.6233C4.31412 17.6369 3.90008 18.8728 3.90008 20.1433C3.90008 21.4138 4.31412 22.6496 5.07938 23.6633C5.84464 24.6769 6.91934 25.413 8.14042 25.7599C9.3615 26.1068 10.6623 26.0455 11.8455 25.5854C13.0286 25.1253 14.0295 24.2914 14.6963 23.2104L15.2788 22.2809H31.8322C32.3327 22.3137 32.8019 22.5359 33.1448 22.9023C33.4877 23.2686 33.6784 23.7519 33.6784 24.2539C33.6784 24.7559 33.4877 25.2391 33.1448 25.6055C32.8019 25.9719 32.3327 26.194 31.8322 26.2268H17.4313C16.5206 27.3867 15.3577 28.3236 14.0311 28.9663C12.7044 29.609 11.2489 29.9407 9.77502 29.936Z" fill="#697173"/>
<path d="M39.0158 29.936C37.0821 29.936 35.1919 29.362 33.5842 28.2865C31.9765 27.211 30.7236 25.6824 29.984 23.8941C29.2444 22.1057 29.0513 20.138 29.4292 18.2398C29.807 16.3416 30.7389 14.5982 32.1068 13.2302C33.4747 11.8622 35.2172 10.931 37.1139 10.5544C39.0107 10.1778 40.9764 10.3728 42.7624 11.1146C44.5484 11.8565 46.0745 13.1119 47.1476 14.722C48.2206 16.3321 48.7925 18.2247 48.7908 20.1602C48.7864 22.753 47.7548 25.2382 45.9224 27.0708C44.0899 28.9034 41.6061 29.9338 39.0158 29.936ZM39.0158 14.3217C37.8618 14.32 36.7332 14.661 35.7729 15.3016C34.8125 15.9421 34.0636 16.8533 33.6208 17.92C33.178 18.9867 33.0613 20.1609 33.2854 21.294C33.5095 22.4271 34.0644 23.4682 34.8798 24.2856C35.6953 25.103 36.7346 25.6599 37.8663 25.8858C38.998 26.1118 40.1712 25.9967 41.2376 25.555C42.3039 25.1134 43.2154 24.365 43.8567 23.4047C44.498 22.4444 44.8403 21.3153 44.8403 20.1602C44.8292 18.6205 44.2109 17.1476 43.12 16.062C42.0292 14.9765 40.554 14.3661 39.0158 14.364V14.3217Z" fill="#697173"/>
<path d="M46.8156 22.6864C46.5566 22.6875 46.2999 22.6374 46.0603 22.539C45.8207 22.4406 45.6029 22.2957 45.4194 22.1128C45.2358 21.9299 45.0902 21.7125 44.9908 21.4731C44.8915 21.2337 44.8403 20.977 44.8403 20.7177C44.8442 17.515 43.9309 14.3783 42.2086 11.6791C40.4863 8.97988 38.0272 6.83131 35.1226 5.48788C32.218 4.14446 28.9896 3.66245 25.8197 4.09896C22.6499 4.53548 19.6714 5.87222 17.2372 7.95085C17.0451 8.14983 16.8134 8.30626 16.5572 8.40999C16.3009 8.51373 16.0258 8.56248 15.7495 8.55309C15.4732 8.54369 15.202 8.47636 14.9534 8.35545C14.7048 8.23454 14.4842 8.06273 14.3061 7.85116C14.128 7.63958 13.9962 7.39293 13.9193 7.12717C13.8424 6.86141 13.8221 6.58245 13.8596 6.30834C13.8972 6.03422 13.9919 5.77105 14.1374 5.53584C14.283 5.30063 14.4763 5.09863 14.7048 4.94289C17.715 2.3874 21.3925 0.74674 25.3036 0.214358C29.2148 -0.318023 33.1964 0.280078 36.7791 1.93814C40.3619 3.5962 43.3962 6.24508 45.5245 9.57244C47.6527 12.8998 48.786 16.7669 48.7909 20.7177C48.7909 20.977 48.7397 21.2337 48.6404 21.4731C48.541 21.7125 48.3954 21.9299 48.2118 22.1128C48.0283 22.2957 47.8105 22.4406 47.5709 22.539C47.3313 22.6374 47.0746 22.6875 46.8156 22.6864Z" fill="#697173"/>
<path d="M68.7712 15.741C68.2608 15.1215 67.6144 14.6283 66.8823 14.3C66.1502 13.9717 65.3522 13.8172 64.5505 13.8484C60.7604 13.8484 58.1942 16.7803 58.1942 20.6078C58.1942 24.6043 60.6253 27.3672 64.4155 27.3672C65.2756 27.3953 66.1299 27.2166 66.9069 26.8461C67.6838 26.4757 68.3607 25.9242 68.8809 25.238L71.5484 27.0377C70.6956 28.0931 69.6079 28.9339 68.3722 29.4929C67.1365 30.0519 65.7872 30.3135 64.4324 30.2569C58.7007 30.2569 54.6235 26.2857 54.6235 20.5487C54.6235 14.6341 58.9371 10.9333 64.5927 10.9333C66.9816 10.9333 69.8095 11.7783 71.2614 13.7385L68.7712 15.741Z" fill="#697173"/>
<path d="M71.9116 26.911H73.4395C75.2797 24.8071 76.242 21.5626 76.242 16.155V11.4319H89.0897V26.911H91.1663V34H88.2287V29.7753H74.8408V34H71.9116V26.911ZM85.8398 26.911V14.2877H79.4328V16.493C79.4328 22.0273 78.3186 25.2211 77.1537 26.911H85.8398Z" fill="#697173"/>
<path d="M98.9997 24.7566H92.77V22.1035H98.9997V24.7566Z" fill="#697173"/>
<path d="M107.821 11.4319H110.649L118.567 29.8176H114.802L113.114 25.5929H105.145L103.457 29.8176H99.8018L107.821 11.4319ZM111.974 22.8131L109.146 15.3355L106.268 22.8131H111.974Z" fill="#697173"/>
<path d="M120.382 11.4319H127.549C130.326 11.4319 133.179 12.6993 133.179 16.0537C133.188 16.9873 132.877 17.8958 132.298 18.6277C131.719 19.3597 130.907 19.8707 129.997 20.0755V20.1347C131.091 20.2001 132.116 20.689 132.857 21.4979C133.597 22.3069 133.994 23.3724 133.964 24.4692C133.964 28.4657 130.486 29.8176 127.008 29.8176H120.39L120.382 11.4319ZM123.657 18.9095H126.561C128.739 18.9095 129.937 17.997 129.937 16.417C129.937 14.837 128.764 14.1272 126.299 14.1272H123.682L123.657 18.9095ZM123.657 27.0631H126.62C128.308 27.0631 130.722 26.7251 130.722 24.3086C130.722 22.3906 129.397 21.7147 126.747 21.7147H123.691L123.657 27.0631Z" fill="#697173"/>
<path d="M140.886 14.2877H135.255V11.4319H149.783V14.2877H144.153V29.8176H140.886V14.2877Z" fill="#697173"/>
<path d="M160.09 10.9841C165.821 10.9841 170 14.7018 170 20.5994C170 26.3365 165.821 30.3077 160.09 30.3077C154.358 30.3077 150.255 26.3112 150.255 20.5741C150.255 14.6765 154.476 10.9841 160.09 10.9841ZM160.09 27.3758C163.854 27.3758 166.421 24.5199 166.421 20.6163C166.421 16.7128 163.888 13.8569 160.09 13.8569C156.291 13.8569 153.784 16.7888 153.784 20.6163C153.784 24.4439 156.375 27.3504 160.115 27.3504L160.09 27.3758Z" fill="#697173"/>
</svg>
