<svg width="38" height="38" viewBox="0 0 38 38" fill="none" xmlns="http://www.w3.org/2000/svg">
<g clip-path="url(#clip0)">
<circle cx="19" cy="19" r="13" fill="#67A955" fill-opacity="0.3"/>
<path d="M23.2249 3.77328C23.0077 3.55584 22.6552 3.55584 22.4378 3.77328L18.4824 7.72861C18.265 7.94576 18.265 8.2983 18.4824 8.51574C18.6999 8.73318 19.0524 8.73318 19.2695 8.51574L23.2249 4.5604C23.4423 4.34296 23.4423 3.99072 23.2249 3.77328Z" fill="#3A4244"/>
<path d="M19.4395 4.17336C19.4395 4.48067 19.1901 4.73 18.8828 4.73C18.5752 4.73 18.3262 4.48067 18.3262 4.17336C18.3262 3.86605 18.5752 3.61672 18.8828 3.61672C19.1901 3.61672 19.4395 3.86605 19.4395 4.17336Z" fill="#3A4244"/>
<path d="M23.3813 8.11565C23.3813 8.42296 23.132 8.672 22.8247 8.672C22.5171 8.672 22.2681 8.42296 22.2681 8.11565C22.2681 7.80804 22.5171 7.55901 22.8247 7.55901C23.132 7.55901 23.3813 7.80804 23.3813 8.11565Z" fill="#3A4244"/>
<path d="M33.2123 21.5881C32.525 20.6998 31.3253 20.3823 30.2952 20.7929C29.6829 19.2464 27.9631 19.0632 26.9162 19.6946L20.2452 23.719C19.7498 23.6419 19.2433 23.563 18.7609 23.4879C19.7234 22.9814 20.4134 22.2172 20.8123 21.2153C21.0811 20.5403 20.9373 19.7929 20.4372 19.2647C19.9417 18.7411 19.2105 18.5582 18.5289 18.7872C17.442 19.1525 16.1994 19.4123 14.836 19.5598C12.8407 19.7752 11.0804 20.8761 10.0068 22.5796L4.77903 30.4059C4.3514 31.0165 4.20383 31.7827 4.37343 32.5084C4.54332 33.2341 5.01589 33.8554 5.66994 34.2128L11.8524 37.5907C12.3592 37.8675 12.9077 38 13.4496 38C14.5066 38 15.5381 37.4956 16.1815 36.5716L18.2254 33.6368C19.0209 32.2655 18.4762 31.2409 18.4025 31.0951C18.4025 31.0951 24.8891 29.4672 24.9309 29.444L32.4342 25.3266C34.3404 24.2324 33.6626 22.17 33.2123 21.5881ZM27.4911 20.6479C28.0423 20.3156 28.8865 20.3012 29.2918 21.2785L24.7523 23.5166C23.8822 23.9457 22.9203 24.1057 21.9612 23.984L27.4911 20.6479ZM31.8987 24.3504L24.4583 28.4336L17.5716 30.1551C17.4568 30.0783 12.1525 27.6775 12.1525 27.6775C11.8721 27.5514 11.5425 27.6764 11.4164 27.9567C11.2903 28.2368 11.4152 28.5664 11.6956 28.6925L16.75 30.9678C17.1228 31.1356 17.3991 31.458 17.5081 31.8523C17.6171 32.2463 17.5455 32.665 17.3118 33.0004L15.2679 35.9352C14.6203 36.8656 13.3812 37.1572 12.3862 36.6136L6.20368 33.2358C5.27768 32.6255 5.2397 31.7161 5.69082 31.0446L8.38212 27.2012L9.41741 27.6674C9.69776 27.7935 10.0274 27.6685 10.1535 27.3882C10.2796 27.1078 10.1547 26.7782 9.87432 26.6521L9.00283 26.2598L10.9485 23.1731C11.84 21.7589 13.3003 20.8453 14.9557 20.6667C16.3989 20.5108 17.7203 20.2333 18.8835 19.8425C19.1531 19.7518 19.4317 19.8219 19.6286 20.0301C19.8304 20.2429 19.886 20.5322 19.7779 20.8036C19.4723 21.571 18.9365 22.1526 18.1851 22.5324C17.7572 22.7486 17.5293 23.1951 17.6044 23.6694C17.6786 24.1388 18.0436 24.5032 18.5127 24.5763C19.1415 24.674 21.2869 25.008 21.6496 25.0645C22.8823 25.257 24.1255 25.0668 25.2446 24.5151L30.6077 21.8708C31.2015 21.5779 31.9266 21.7455 32.3319 22.2694C32.5824 22.5932 33.0042 23.697 31.8987 24.3504Z" fill="#3A4244"/>
<path d="M13.6893 13.1451L18.704 17.355C19.3267 17.878 20.0904 18.1392 20.8537 18.1392C21.6173 18.1392 22.3807 17.878 23.0034 17.355L24.4095 16.1748C24.6449 15.977 24.6757 15.6259 24.478 15.3905C24.2802 15.1551 23.9291 15.1247 23.6937 15.3221L22.2876 16.5027C21.4567 17.1999 20.2507 17.1999 19.4198 16.5027L14.4051 12.2925C14.1714 12.0965 14.2392 11.8448 14.2656 11.7724C14.292 11.6999 14.4019 11.4636 14.7069 11.4636H16.0228C16.3304 11.4636 16.5795 11.2146 16.5795 10.907V2.38283C16.5795 1.68268 17.1491 1.11328 17.849 1.11328H23.8584C24.5586 1.11328 25.128 1.68268 25.128 2.38283V10.907C25.128 11.2146 25.3773 11.4636 25.6846 11.4636H27.0008C27.3055 11.4636 27.4154 11.6999 27.4418 11.7724C27.4682 11.8448 27.536 12.0965 27.3026 12.2925L25.5683 13.7484C25.3329 13.9459 25.3022 14.2973 25.4999 14.5327C25.6976 14.7681 26.0487 14.7985 26.2841 14.6011L28.0181 13.1451C28.5339 12.7123 28.718 12.024 28.4878 11.3914C28.2576 10.7591 27.6737 10.3503 27.0008 10.3503H26.2412V2.38283C26.2412 1.06892 25.1723 0 23.8584 0H17.849C16.5351 0 15.4662 1.06892 15.4662 2.38283V10.3503H14.7066C14.0334 10.3503 13.4498 10.7591 13.2196 11.3914C12.9894 12.024 13.1735 12.7123 13.6893 13.1451Z" fill="#3A4244"/>
</g>
<defs>
<clipPath id="clip0">
<rect width="38" height="38" fill="white"/>
</clipPath>
</defs>
</svg>
