<svg width="67" height="60" viewBox="0 0 67 60" fill="none" xmlns="http://www.w3.org/2000/svg">
<rect x="31" y="24" width="36" height="36" rx="10" fill="#67A955" fill-opacity="0.3"/>
<path d="M8.928 45.368L7.81262 47.0281L7.82751 47.0381L7.84257 47.0478L8.928 45.368ZM4.08 39.416L2.26081 40.247H2.26081L4.08 39.416ZM4.08 20.984L2.26081 20.153L2.26081 20.153L4.08 20.984ZM8.928 15.08L10.0253 16.7521L10.0315 16.748L8.928 15.08ZM23.04 15.08L21.9246 16.7401L21.9395 16.7501L21.9546 16.7598L23.04 15.08ZM27.936 20.984L29.7552 20.153V20.153L27.936 20.984ZM23.04 45.368L24.1373 47.0401L24.1435 47.036L23.04 45.368ZM22.464 39.8L20.8556 38.6112L20.85 38.6188L20.8445 38.6264L22.464 39.8ZM22.464 20.6L20.8445 21.7736L20.85 21.7812L20.8556 21.7888L22.464 20.6ZM9.504 20.6L7.89565 19.4112L7.89004 19.4188L7.8845 19.4264L9.504 20.6ZM9.504 39.8L7.8845 40.9735L7.89004 40.9812L7.89565 40.9888L9.504 39.8ZM16.032 45.384C13.7319 45.384 11.7463 44.8079 10.0134 43.6882L7.84257 47.0478C10.2697 48.6161 13.0201 49.384 16.032 49.384V45.384ZM10.0434 43.7079C8.3471 42.5682 6.9539 40.894 5.89919 38.585L2.26081 40.247C3.5741 43.122 5.4129 45.4158 7.81262 47.0281L10.0434 43.7079ZM5.89919 38.585C4.85991 36.3098 4.304 33.534 4.304 30.2H0.304C0.304 33.9701 0.932086 37.3382 2.26081 40.247L5.89919 38.585ZM4.304 30.2C4.304 26.866 4.85991 24.0902 5.89919 21.815L2.26081 20.153C0.932086 23.0618 0.304 26.4299 0.304 30.2H4.304ZM5.89919 21.815C6.95266 19.5088 8.34097 17.8574 10.0253 16.7521L7.83069 13.4079C5.41903 14.9906 3.57534 17.2752 2.26081 20.153L5.89919 21.815ZM10.0315 16.748C11.7625 15.6029 13.7417 15.016 16.032 15.016V11.016C13.0103 11.016 10.2535 11.8051 7.82453 13.412L10.0315 16.748ZM16.032 15.016C18.2852 15.016 20.2278 15.6 21.9246 16.7401L24.1554 13.4199C21.7562 11.808 19.0268 11.016 16.032 11.016V15.016ZM21.9546 16.7598C23.6679 17.8669 25.0669 19.5166 26.1168 21.815L29.7552 20.153C28.4371 17.2674 26.5721 14.9811 24.1254 13.4002L21.9546 16.7598ZM26.1168 21.815C27.1561 24.0902 27.712 26.866 27.712 30.2H31.712C31.712 26.4299 31.0839 23.0618 29.7552 20.153L26.1168 21.815ZM27.712 30.2C27.712 33.534 27.1561 36.3098 26.1168 38.585L29.7552 40.247C31.0839 37.3382 31.712 33.9701 31.712 30.2H27.712ZM26.1168 38.585C25.0656 40.8862 23.6617 42.5587 21.9365 43.7L24.1435 47.036C26.5783 45.4253 28.4384 43.1298 29.7552 40.247L26.1168 38.585ZM21.9427 43.6959C20.2442 44.8106 18.2952 45.384 16.032 45.384V49.384C19.0168 49.384 21.7398 48.6134 24.1373 47.0401L21.9427 43.6959ZM16.032 45.112C19.372 45.112 22.1138 43.6918 24.0835 40.9735L20.8445 38.6264C19.6142 40.3242 18.068 41.112 16.032 41.112V45.112ZM24.0724 40.9888C26.0612 38.298 26.912 34.6075 26.912 30.2H22.912C22.912 34.1765 22.1308 36.886 20.8556 38.6112L24.0724 40.9888ZM26.912 30.2C26.912 25.7925 26.0612 22.102 24.0724 19.4112L20.8556 21.7888C22.1308 23.514 22.912 26.2235 22.912 30.2H26.912ZM24.0835 19.4264C22.1138 16.7082 19.372 15.288 16.032 15.288V19.288C18.068 19.288 19.6142 20.0758 20.8445 21.7736L24.0835 19.4264ZM16.032 15.288C12.6705 15.288 9.90054 16.6987 7.89565 19.4112L11.1124 21.7888C12.3715 20.0853 13.9535 19.288 16.032 19.288V15.288ZM7.8845 19.4264C5.93641 22.1148 5.104 25.7988 5.104 30.2H9.104C9.104 26.2172 9.87159 23.5012 11.1235 21.7736L7.8845 19.4264ZM5.104 30.2C5.104 34.6012 5.93641 38.2852 7.8845 40.9735L11.1235 38.6264C9.87159 36.8988 9.104 34.1828 9.104 30.2H5.104ZM7.89565 40.9888C9.90054 43.7013 12.6705 45.112 16.032 45.112V41.112C13.9535 41.112 12.3715 40.3147 11.1124 38.6112L7.89565 40.9888ZM60.195 42.824H62.195V40.824H60.195V42.824ZM60.195 47V49H62.195V47H60.195ZM36.051 47H34.051V49H36.051V47ZM36.051 43.736L34.6623 42.2968L34.051 42.8866V43.736H36.051ZM49.731 30.536L48.3448 29.0943L48.3423 29.0968L49.731 30.536ZM53.091 26.408L54.8799 27.3024L54.8847 27.2927L54.8895 27.2829L53.091 26.408ZM52.083 18.776L50.8187 20.3257L50.8409 20.3438L50.8636 20.3612L52.083 18.776ZM38.211 20.936L36.9003 22.4466L38.4453 23.7872L39.7508 22.2124L38.211 20.936ZM34.947 18.104L33.4005 16.8358L32.1671 18.3399L33.6363 19.6146L34.947 18.104ZM40.083 14.36L39.3118 12.5146L39.3019 12.5188L40.083 14.36ZM55.635 15.56L54.3711 17.11L54.3783 17.1159L54.3856 17.1217L55.635 15.56ZM57.603 27.464L59.406 28.3295L57.603 27.464ZM53.235 32.936L51.8535 31.4898L51.848 31.4951L53.235 32.936ZM42.963 42.824L41.576 41.3831L38.0015 44.824H42.963V42.824ZM58.195 42.824V47H62.195V42.824H58.195ZM60.195 45H36.051V49H60.195V45ZM38.051 47V43.736H34.051V47H38.051ZM37.4397 45.1752L51.1197 31.9752L48.3423 29.0968L34.6623 42.2968L37.4397 45.1752ZM51.1172 31.9777C52.8369 30.3242 54.1511 28.7599 54.8799 27.3024L51.3021 25.5136C50.8789 26.3601 49.9531 27.5478 48.3448 29.0943L51.1172 31.9777ZM54.8895 27.2829C55.5831 25.8572 55.955 24.3757 55.955 22.856H51.955C51.955 23.7043 51.7509 24.5908 51.2925 25.5331L54.8895 27.2829ZM55.955 22.856C55.955 20.5587 55.1053 18.5776 53.3024 17.1908L50.8636 20.3612C51.5567 20.8944 51.955 21.6333 51.955 22.856H55.955ZM53.3473 17.2263C51.6404 15.8339 49.3588 15.288 46.803 15.288V19.288C48.8552 19.288 50.0936 19.7341 50.8187 20.3257L53.3473 17.2263ZM46.803 15.288C42.6115 15.288 39.1354 16.687 36.6712 19.6596L39.7508 22.2124C41.3186 20.321 43.5705 19.288 46.803 19.288V15.288ZM39.5217 19.4254L36.2577 16.5934L33.6363 19.6146L36.9003 22.4466L39.5217 19.4254ZM36.4935 19.3722C37.5789 18.0485 39.0169 16.9848 40.8641 16.2012L39.3019 12.5188C36.9251 13.5272 34.9391 14.9595 33.4005 16.8358L36.4935 19.3722ZM40.8542 16.2053C42.7243 15.4238 44.8417 15.016 47.235 15.016V11.016C44.3803 11.016 41.7297 11.5042 39.3118 12.5147L40.8542 16.2053ZM47.235 15.016C50.4393 15.016 52.7461 15.785 54.3711 17.11L56.8989 14.01C54.3639 11.943 51.0707 11.016 47.235 11.016V15.016ZM54.3856 17.1217C55.9487 18.3722 56.755 20.047 56.755 22.376H60.755C60.755 18.945 59.4813 16.0758 56.8844 13.9983L54.3856 17.1217ZM56.755 22.376C56.755 23.8714 56.437 25.2713 55.8 26.5985L59.406 28.3295C60.305 26.4567 60.755 24.4646 60.755 22.376H56.755ZM55.8 26.5985C55.1832 27.8834 53.9241 29.512 51.8535 31.4898L54.6165 34.3822C56.8339 32.264 58.4868 30.2446 59.406 28.3295L55.8 26.5985ZM51.848 31.4951L41.576 41.3831L44.35 44.2649L54.622 34.3769L51.848 31.4951ZM42.963 44.824H60.195V40.824H42.963V44.824Z" fill="#3A4244"/>
</svg>
