<svg width="48" height="48" viewBox="0 0 48 48" fill="none" xmlns="http://www.w3.org/2000/svg">
<circle cx="19" cy="19" r="19" fill="#67A955" fill-opacity="0.2"/>
<path d="M45.6 0H15.2C14.5641 0.00189927 13.9547 0.255366 13.505 0.705042C13.0554 1.15472 12.8019 1.76406 12.8 2.4V11.2H0.8C0.587827 11.2 0.384344 11.2843 0.234315 11.4343C0.0842854 11.5843 0 11.7878 0 12V44C0 44.2122 0.0842854 44.4157 0.234315 44.5657C0.384344 44.7157 0.587827 44.8 0.8 44.8H12.8V45.6C12.8019 46.2359 13.0554 46.8453 13.505 47.295C13.9547 47.7446 14.5641 47.9981 15.2 48H45.6C46.2359 47.9981 46.8453 47.7446 47.295 47.295C47.7446 46.8453 47.9981 46.2359 48 45.6V2.4C47.9981 1.76406 47.7446 1.15472 47.295 0.705042C46.8453 0.255366 46.2359 0.00189927 45.6 0ZM3.2 43.2H1.6V12.8H3.2V43.2ZM4.8 43.2V12.8H22.4V43.2H4.8ZM46.4 45.6C46.4 45.8122 46.3157 46.0157 46.1657 46.1657C46.0157 46.3157 45.8122 46.4 45.6 46.4H15.2C14.9878 46.4 14.7843 46.3157 14.6343 46.1657C14.4843 46.0157 14.4 45.8122 14.4 45.6V44.8H23.2C23.4122 44.8 23.6157 44.7157 23.7657 44.5657C23.9157 44.4157 24 44.2122 24 44V12C24 11.7878 23.9157 11.5843 23.7657 11.4343C23.6157 11.2843 23.4122 11.2 23.2 11.2H14.4V2.4C14.4 2.18783 14.4843 1.98434 14.6343 1.83431C14.7843 1.68429 14.9878 1.6 15.2 1.6H45.6C45.8122 1.6 46.0157 1.68429 46.1657 1.83431C46.3157 1.98434 46.4 2.18783 46.4 2.4V45.6Z" fill="#3A4244"/>
<path d="M42.5534 30.5208C42.4034 30.3709 42.1999 30.2866 41.9878 30.2866C41.7757 30.2866 41.5722 30.3709 41.4222 30.5208L35.1998 36.7432L32.371 33.9152C32.221 33.7653 32.0175 33.681 31.8054 33.681C31.5933 33.681 31.3898 33.7653 31.2398 33.9152L28.9774 36.1776C28.8274 36.3277 28.7432 36.5311 28.7432 36.7432C28.7432 36.9554 28.8274 37.1588 28.9774 37.3089L34.6342 42.9656C34.7842 43.1156 34.9877 43.1999 35.1998 43.1999C35.4119 43.1999 35.6154 43.1156 35.7654 42.9656L44.8166 33.9152C44.891 33.841 44.95 33.7527 44.9902 33.6556C45.0305 33.5585 45.0512 33.4544 45.0512 33.3492C45.0512 33.2441 45.0305 33.14 44.9902 33.0429C44.95 32.9458 44.891 32.8575 44.8166 32.7832L42.5534 30.5208ZM35.1998 41.2688L30.6742 36.7432L31.8054 35.612L34.6342 38.44C34.7842 38.59 34.9877 38.6743 35.1998 38.6743C35.4119 38.6743 35.6154 38.59 35.7654 38.44L41.9878 32.2176L43.1198 33.3496L35.1998 41.2688Z" fill="#3A4244"/>
<path d="M43.2001 8.80005V5.60005C43.2001 5.38788 43.1158 5.18439 42.9658 5.03436C42.8158 4.88433 42.6123 4.80005 42.4001 4.80005H18.4001C18.1879 4.80005 17.9844 4.88433 17.8344 5.03436C17.6844 5.18439 17.6001 5.38788 17.6001 5.60005V8.80005C17.6001 9.01222 17.6844 9.2157 17.8344 9.36573C17.9844 9.51576 18.1879 9.60005 18.4001 9.60005H42.4001C42.6123 9.60005 42.8158 9.51576 42.9658 9.36573C43.1158 9.2157 43.2001 9.01222 43.2001 8.80005ZM41.6001 8.00005H19.2001V6.40005H41.6001V8.00005Z" fill="#3A4244"/>
<path d="M28.7998 12.8H31.9998V14.4H28.7998V12.8Z" fill="#3A4244"/>
<path d="M33.6001 12.8H43.2001V14.4H33.6001V12.8Z" fill="#3A4244"/>
<path d="M28.7998 17.6001H31.9998V19.2001H28.7998V17.6001Z" fill="#3A4244"/>
<path d="M33.6001 17.6001H43.2001V19.2001H33.6001V17.6001Z" fill="#3A4244"/>
<path d="M28.7998 22.3999H31.9998V23.9999H28.7998V22.3999Z" fill="#3A4244"/>
<path d="M33.6001 22.3999H43.2001V23.9999H33.6001V22.3999Z" fill="#3A4244"/>
<path d="M28.7998 27.2H31.9998V28.8H28.7998V27.2Z" fill="#3A4244"/>
<path d="M33.6001 27.2H43.2001V28.8H33.6001V27.2Z" fill="#3A4244"/>
<path d="M13.6001 24C12.809 24 12.0356 24.2346 11.3778 24.6741C10.72 25.1136 10.2073 25.7384 9.90458 26.4693C9.60183 27.2002 9.52262 28.0044 9.67696 28.7804C9.8313 29.5563 10.2123 30.269 10.7717 30.8284C11.3311 31.3878 12.0438 31.7688 12.8197 31.9231C13.5957 32.0775 14.3999 31.9983 15.1308 31.6955C15.8617 31.3928 16.4865 30.8801 16.926 30.2223C17.3655 29.5645 17.6001 28.7911 17.6001 28C17.5988 26.9395 17.177 25.9228 16.4271 25.173C15.6773 24.4231 14.6606 24.0013 13.6001 24ZM13.6001 30.4C13.1254 30.4 12.6614 30.2592 12.2667 29.9955C11.8721 29.7318 11.5644 29.357 11.3828 28.9184C11.2011 28.4799 11.1536 27.9973 11.2462 27.5318C11.3388 27.0662 11.5674 26.6386 11.903 26.3029C12.2387 25.9673 12.6663 25.7387 13.1319 25.6461C13.5974 25.5535 14.08 25.601 14.5185 25.7827C14.9571 25.9643 15.3319 26.272 15.5956 26.6666C15.8593 27.0613 16.0001 27.5253 16.0001 28C16.0001 28.6365 15.7472 29.247 15.2972 29.6971C14.8471 30.1471 14.2366 30.4 13.6001 30.4Z" fill="#3A4244"/>
<path d="M19.9999 17.5999C19.364 17.598 18.7546 17.3445 18.3049 16.8949C17.8553 16.4452 17.6018 15.8358 17.5999 15.1999C17.5999 14.9877 17.5156 14.7842 17.3656 14.6342C17.2156 14.4842 17.0121 14.3999 16.7999 14.3999H10.3999C10.1877 14.3999 9.98425 14.4842 9.83422 14.6342C9.68419 14.7842 9.5999 14.9877 9.5999 15.1999C9.598 15.8358 9.34454 16.4452 8.89486 16.8949C8.44518 17.3445 7.83584 17.598 7.1999 17.5999C6.98773 17.5999 6.78425 17.6842 6.63422 17.8342C6.48419 17.9842 6.3999 18.1877 6.3999 18.3999V37.5999C6.3999 37.8121 6.48419 38.0156 6.63422 38.1656C6.78425 38.3156 6.98773 38.3999 7.1999 38.3999C7.83584 38.4018 8.44518 38.6553 8.89486 39.1049C9.34454 39.5546 9.598 40.164 9.5999 40.7999C9.5999 41.0121 9.68419 41.2156 9.83422 41.3656C9.98425 41.5156 10.1877 41.5999 10.3999 41.5999H16.7999C17.0121 41.5999 17.2156 41.5156 17.3656 41.3656C17.5156 41.2156 17.5999 41.0121 17.5999 40.7999C17.6018 40.164 17.8553 39.5546 18.3049 39.1049C18.7546 38.6553 19.364 38.4018 19.9999 38.3999C20.2121 38.3999 20.4156 38.3156 20.5656 38.1656C20.7156 38.0156 20.7999 37.8121 20.7999 37.5999V18.3999C20.7999 18.1877 20.7156 17.9842 20.5656 17.8342C20.4156 17.6842 20.2121 17.5999 19.9999 17.5999ZM19.1999 36.8799C18.4316 37.0376 17.7265 37.4173 17.1719 37.9719C16.6173 38.5265 16.2376 39.2316 16.0799 39.9999H11.1199C10.9622 39.2316 10.5825 38.5265 10.0279 37.9719C9.4733 37.4173 8.76818 37.0376 7.9999 36.8799V19.1199C8.76818 18.9622 9.4733 18.5825 10.0279 18.0279C10.5825 17.4733 10.9622 16.7682 11.1199 15.9999H16.0799C16.2376 16.7682 16.6173 17.4733 17.1719 18.0279C17.7265 18.5825 18.4316 18.9622 19.1999 19.1199V36.8799Z" fill="#3A4244"/>
</svg>
