<svg width="38" height="38" viewBox="0 0 38 38" fill="none" xmlns="http://www.w3.org/2000/svg">
<path d="M17 32C24.1797 32 30 26.1797 30 19C30 11.8203 24.1797 6 17 6C9.8203 6 4 11.8203 4 19C4 26.1797 9.8203 32 17 32Z" fill="#67A955" fill-opacity="0.3"/>
<path d="M1.9 38H35.4667C36.8658 38 38 36.8658 38 35.4667V25.3333C38 23.9342 36.8658 22.8 35.4667 22.8H27.8667V4.43333C27.8639 1.98603 25.8806 0.00279214 23.4333 0H1.9C0.850659 0 0 0.850659 0 1.9V36.1C0 37.1493 0.850659 38 1.9 38ZM16.4667 30.4H6.33333C5.98355 30.4 5.7 30.1164 5.7 29.7667V28.5C5.7 28.1502 5.98355 27.8667 6.33333 27.8667H16.4667V30.4ZM36.7333 25.3333V35.4667C36.7333 36.1662 36.1662 36.7333 35.4667 36.7333H19C18.3004 36.7333 17.7333 36.1662 17.7333 35.4667V25.3333C17.7333 24.6338 18.3004 24.0667 19 24.0667H35.4667C36.1662 24.0667 36.7333 24.6338 36.7333 25.3333ZM1.26667 1.9C1.26667 1.55022 1.55022 1.26667 1.9 1.26667H23.4333C25.1814 1.26876 26.5979 2.6853 26.6 4.43333V22.8H19C17.6009 22.8 16.4667 23.9342 16.4667 25.3333V26.6H6.33333C5.28399 26.6 4.43333 27.4507 4.43333 28.5V29.7667C4.43333 30.816 5.28399 31.6667 6.33333 31.6667H16.4667V35.4667C16.4693 35.9127 16.5908 36.3499 16.8188 36.7333H1.9C1.55022 36.7333 1.26667 36.4498 1.26667 36.1V1.9Z" fill="#3A4244"/>
<path d="M5.32897 17.3008C5.34305 17.3412 5.36131 17.38 5.38344 17.4167C6.96191 20.7048 10.2861 22.7964 13.9334 22.7964C17.5808 22.7964 20.905 20.7048 22.4834 17.4167C22.5054 17.3811 22.5236 17.3433 22.5379 17.304C23.7321 14.7704 23.7321 11.8359 22.5379 9.30242C22.5236 9.26309 22.5054 9.22532 22.4834 9.18968C20.905 5.9016 17.5808 3.81001 13.9334 3.81001C10.2861 3.81001 6.96191 5.9016 5.38344 9.18968C5.3615 9.22532 5.34325 9.26309 5.32897 9.30242C4.13579 11.835 4.13579 14.7682 5.32897 17.3008ZM21.5334 16.4667H18.7164C18.8676 15.63 18.9569 14.7832 18.9836 13.9334H22.1345C22.0708 14.8045 21.8679 15.6598 21.5334 16.4667ZM5.7324 13.9334H8.88323C8.90995 14.7832 8.99929 15.63 9.1505 16.4667H6.33344C5.99896 15.6598 5.79604 14.8045 5.7324 13.9334ZM10.1493 13.9334H13.3001V16.4667H10.433C10.2711 15.6312 10.1762 14.784 10.1493 13.9334ZM13.3001 17.7334V21.4004C12.3058 21.0014 11.3469 19.6904 10.7497 17.7334H13.3001ZM14.5668 21.4004V17.7334H17.1172C16.52 19.6891 15.5611 21.0014 14.5668 21.4004ZM14.5668 16.4667V13.9334H17.7176C17.6907 14.784 17.5958 15.6312 17.4339 16.4667H14.5668ZM22.1345 12.6667H18.9836C18.9569 11.8168 18.8676 10.9701 18.7164 10.1333H21.5334C21.8679 10.9402 22.0708 11.7955 22.1345 12.6667ZM17.7176 12.6667H14.5668V10.1333H17.4339C17.5958 10.9689 17.6907 11.816 17.7176 12.6667ZM14.5668 8.86668V5.19968C15.5611 5.59868 16.52 6.90968 17.1172 8.86668H14.5668ZM13.3001 5.19968V8.86668H10.7497C11.3469 6.91095 12.3058 5.59868 13.3001 5.19968ZM13.3001 10.1333V12.6667H10.1493C10.1762 11.816 10.2711 10.9689 10.433 10.1333H13.3001ZM8.88323 12.6667H5.7324C5.79604 11.7955 5.99896 10.9402 6.33344 10.1333H9.1486C8.99802 10.9701 8.90933 11.8169 8.88323 12.6667ZM7.00667 17.7334H9.43677C9.73197 18.8827 10.2279 19.9708 10.9017 20.9475C9.29996 20.3085 7.9381 19.1847 7.00667 17.7334ZM16.9652 20.9475C17.639 19.9708 18.1349 18.8827 18.4301 17.7334H20.8602C19.9288 19.1847 18.5669 20.3085 16.9652 20.9475ZM20.8602 8.86668H18.4301C18.1349 7.71738 17.639 6.62927 16.9652 5.65251C18.5669 6.29157 19.9288 7.41537 20.8602 8.86668ZM10.9017 5.65251C10.2279 6.62927 9.73197 7.71738 9.43677 8.86668H7.00667C7.9381 7.41537 9.29996 6.29157 10.9017 5.65251Z" fill="#3A4244"/>
<path d="M23.9356 29.6748C24.6732 28.9554 24.9015 27.8608 24.5131 26.9064C24.1248 25.9521 23.197 25.328 22.1667 25.328C21.1363 25.328 20.2086 25.9521 19.8202 26.9064C19.4318 27.8608 19.6602 28.9554 20.3978 29.6748C19.5243 30.263 19.0005 31.2469 19 32.3V34.2C19 34.8995 19.5671 35.4666 20.2667 35.4666H24.0667C24.7662 35.4666 25.3333 34.8995 25.3333 34.2V32.3C25.3329 31.2469 24.809 30.263 23.9356 29.6748ZM20.9 27.8666C20.9 27.1671 21.4671 26.6 22.1667 26.6C22.8662 26.6 23.4333 27.1671 23.4333 27.8666C23.4333 28.5662 22.8662 29.1333 22.1667 29.1333C21.4671 29.1333 20.9 28.5662 20.9 27.8666ZM20.2667 34.2V32.3C20.2667 31.2506 21.1173 30.4 22.1667 30.4C23.216 30.4 24.0667 31.2506 24.0667 32.3V34.2H20.2667Z" fill="#3A4244"/>
<path d="M26.6001 26.6C26.6001 26.9498 26.8837 27.2333 27.2334 27.2333H34.2001C34.5499 27.2333 34.8334 26.9498 34.8334 26.6C34.8334 26.2502 34.5499 25.9667 34.2001 25.9667H27.2334C26.8837 25.9667 26.6001 26.2502 26.6001 26.6Z" fill="#3A4244"/>
<path d="M34.2001 28.5H27.2334C26.8837 28.5 26.6001 28.7836 26.6001 29.1333C26.6001 29.4831 26.8837 29.7667 27.2334 29.7667H34.2001C34.5499 29.7667 34.8334 29.4831 34.8334 29.1333C34.8334 28.7836 34.5499 28.5 34.2001 28.5Z" fill="#3A4244"/>
<path d="M34.2001 31.0333H27.2334C26.8837 31.0333 26.6001 31.3169 26.6001 31.6667C26.6001 32.0164 26.8837 32.3 27.2334 32.3H34.2001C34.5499 32.3 34.8334 32.0164 34.8334 31.6667C34.8334 31.3169 34.5499 31.0333 34.2001 31.0333Z" fill="#3A4244"/>
<path d="M30.4001 33.5667H27.2334C26.8837 33.5667 26.6001 33.8502 26.6001 34.2C26.6001 34.5498 26.8837 34.8333 27.2334 34.8333H30.4001C30.7499 34.8333 31.0334 34.5498 31.0334 34.2C31.0334 33.8502 30.7499 33.5667 30.4001 33.5667Z" fill="#3A4244"/>
</svg>
