<svg width="26" height="26" viewBox="0 0 26 26" fill="none" xmlns="http://www.w3.org/2000/svg">
<g opacity="0.5">
<path d="M25 13C25 6.375 19.625 1 13 1C6.375 1 1 6.375 1 13C1 19.625 6.375 25 13 25C19.625 25 25 19.625 25 13Z" stroke="#3A4244" stroke-width="2" stroke-miterlimit="10"/>
<path d="M10.52 17.9025L17.6731 13.5812C17.7728 13.5205 17.8552 13.4351 17.9124 13.3333C17.9696 13.2315 17.9996 13.1167 17.9996 13C17.9996 12.8832 17.9696 12.7684 17.9124 12.6667C17.8552 12.5649 17.7728 12.4795 17.6731 12.4187L10.52 8.0975C10.4175 8.03607 10.3005 8.00302 10.1809 8.00175C10.0614 8.00047 9.94372 8.03101 9.8399 8.09024C9.73608 8.14946 9.64989 8.23524 9.59016 8.33877C9.53043 8.4423 9.49932 8.55985 9.50001 8.67937V17.3206C9.49932 17.4401 9.53043 17.5577 9.59016 17.6612C9.64989 17.7648 9.73608 17.8505 9.8399 17.9098C9.94372 17.969 10.0614 17.9995 10.1809 17.9982C10.3005 17.997 10.4175 17.9639 10.52 17.9025Z" fill="#3A4244"/>
</g>
</svg>
