<svg width="38" height="48" viewBox="0 0 38 48" fill="none" xmlns="http://www.w3.org/2000/svg">
<circle cx="20.7588" cy="33" r="15" fill="#67A955" fill-opacity="0.3"/>
<path d="M37.3115 11.0803L33.7206 7.48959V2.13356C33.7206 0.957094 32.7635 0 31.5869 0H2.10694C0.945187 0 0 0.945188 0 2.10694V37.4536C0 38.6153 0.945187 39.5605 2.10694 39.5605H3.29869V40.7347C3.29869 41.8964 4.24387 42.8416 5.40572 42.8416H9.97631C10.3646 42.8416 10.6794 42.5269 10.6794 42.1385C10.6794 41.7501 10.3646 41.4353 9.97631 41.4353H5.40572C5.01928 41.4353 4.70494 41.121 4.70494 40.7347V12.4649C4.70494 12.0765 4.39012 11.7618 4.00181 11.7618C3.6135 11.7618 3.29869 12.0765 3.29869 12.4649V38.1543H2.10694C1.72059 38.1543 1.40625 37.8399 1.40625 37.4536V2.10694C1.40625 1.72059 1.72059 1.40625 2.10694 1.40625H31.587C31.9881 1.40625 32.3144 1.7325 32.3144 2.13356V6.08344L29.7178 3.48703C29.5859 3.35522 29.4071 3.28116 29.2207 3.28116H5.40572C4.24387 3.28116 3.29869 4.22634 3.29869 5.38809V9.19181C3.29869 9.58022 3.6135 9.89494 4.00181 9.89494C4.39012 9.89494 4.70494 9.58022 4.70494 9.19181V5.388C4.70494 5.00166 5.01928 4.68731 5.40572 4.68731H28.5174V11.5762C28.5174 11.9646 28.8322 12.2793 29.2205 12.2794L36.1112 12.2805V40.7346C36.1112 41.1209 35.7968 41.4352 35.4105 41.4352H30.8946C30.5062 41.4352 30.1914 41.75 30.1914 42.1384C30.1914 42.5268 30.5062 42.8415 30.8946 42.8415H35.4105C36.5722 42.8415 37.5174 41.8963 37.5174 40.7346V11.5776C37.5174 11.3911 37.4434 11.2123 37.3115 11.0803ZM29.9237 10.8732V5.68162L35.1165 10.8742L29.9237 10.8732Z" fill="#3A4244"/>
<path d="M28.8359 16.449H12.0151C11.6268 16.449 11.312 16.7637 11.312 17.1521C11.312 17.5405 11.6268 17.8552 12.0151 17.8552H28.8359C29.2243 17.8552 29.5391 17.5405 29.5391 17.1521C29.5391 16.7637 29.2243 16.449 28.8359 16.449Z" fill="#3A4244"/>
<path d="M28.8359 20.5957H12.0151C11.6268 20.5957 11.312 20.9104 11.312 21.2988C11.312 21.6872 11.6268 22.002 12.0151 22.002H28.8359C29.2243 22.002 29.5391 21.6872 29.5391 21.2988C29.5391 20.9104 29.2243 20.5957 28.8359 20.5957Z" fill="#3A4244"/>
<path d="M28.8358 24.8252H25.5127C25.1244 24.8252 24.8096 25.1399 24.8096 25.5283C24.8096 25.9167 25.1244 26.2314 25.5127 26.2314H28.8358C29.2242 26.2314 29.539 25.9167 29.539 25.5283C29.539 25.1399 29.2242 24.8252 28.8358 24.8252Z" fill="#3A4244"/>
<path d="M22.2037 26.2314C22.592 26.2314 22.9068 25.9167 22.9068 25.5283C22.9068 25.1399 22.592 24.8252 22.2037 24.8252H12.0151C11.6268 24.8252 11.312 25.1399 11.312 25.5283C11.312 25.9167 11.6268 26.2314 12.0151 26.2314H22.2037Z" fill="#3A4244"/>
<path d="M23.0031 38.4937L21.1286 36.6193V43.4167C21.1286 43.8052 20.8138 44.1199 20.4255 44.1199C20.0372 44.1199 19.7224 43.8052 19.7224 43.4167V36.6193L17.848 38.4937C17.5734 38.7682 17.1281 38.7682 16.8537 38.4936C16.5791 38.219 16.5791 37.7737 16.8537 37.4992L19.9284 34.4246C20.0656 34.2874 20.2456 34.2188 20.4255 34.2188C20.6054 34.2188 20.7854 34.2874 20.9227 34.4246L23.9974 37.4992C24.272 37.7738 24.272 38.2191 23.9974 38.4936C23.7229 38.7682 23.2777 38.7681 23.0031 38.4937Z" fill="#3A4244"/>
<path d="M20.4254 30.3386C15.5559 30.3386 11.5942 34.3001 11.5942 39.1694C11.5942 44.0386 15.5559 48.0001 20.4254 48.0001C25.2949 48.0001 29.2565 44.0386 29.2565 39.1694C29.2565 34.3001 25.2949 30.3386 20.4254 30.3386ZM20.4254 46.5939C16.3313 46.5939 13.0005 43.2634 13.0005 39.1695C13.0005 35.0756 16.3313 31.745 20.4254 31.745C24.5194 31.745 27.8503 35.0756 27.8503 39.1695C27.8503 43.2634 24.5194 46.5939 20.4254 46.5939Z" fill="#3A4244"/>
</svg>
