<svg width="170" height="34" viewBox="0 0 170 34" fill="none" xmlns="http://www.w3.org/2000/svg">
<path d="M54.438 3.1178H57.2912V6.53977H56.8944V3.45577H54.8685V6.53977H54.4633L54.438 3.1178Z" fill="#3A4244"/>
<path d="M59.0049 8.31411H58.6082V3.11779H59.0049V3.80218C59.1396 3.56137 59.3373 3.3618 59.5767 3.22486C59.8161 3.08792 60.0883 3.01878 60.364 3.02484C60.6016 3.01472 60.8387 3.05497 61.0597 3.14295C61.2807 3.23093 61.4806 3.36466 61.6464 3.53537C61.8121 3.70609 61.94 3.90993 62.0216 4.13355C62.1032 4.35718 62.1366 4.59553 62.1197 4.83299C62.1364 5.06899 62.1034 5.30586 62.0228 5.52827C61.9422 5.75068 61.8159 5.95367 61.652 6.12412C61.4881 6.29456 61.2902 6.42866 61.0712 6.51772C60.8523 6.60678 60.6171 6.64883 60.3808 6.64115C60.1118 6.64903 59.8455 6.58606 59.6085 6.45854C59.3715 6.33102 59.172 6.14341 59.0302 5.91451L59.0049 8.31411ZM60.3555 3.37971C60.1663 3.38172 59.9795 3.42204 59.8064 3.49824C59.6332 3.57445 59.4772 3.68497 59.3479 3.82313C59.2185 3.96129 59.1184 4.12424 59.0537 4.30216C58.989 4.48007 58.9609 4.66927 58.9711 4.85834C58.9655 5.04424 58.9971 5.22938 59.064 5.40287C59.131 5.57637 59.2319 5.7347 59.3609 5.86855C59.4899 6.0024 59.6444 6.10906 59.8152 6.18225C59.986 6.25544 60.1697 6.29368 60.3555 6.29472C60.5439 6.29771 60.7309 6.2612 60.9043 6.18754C61.0778 6.11389 61.2339 6.00472 61.3627 5.86705C61.4915 5.72938 61.5901 5.56626 61.6522 5.38817C61.7142 5.21009 61.7383 5.02097 61.723 4.83299C61.7345 4.64626 61.7077 4.45915 61.6442 4.2832C61.5806 4.10725 61.4817 3.94621 61.3536 3.81002C61.2254 3.67383 61.0707 3.56538 60.8991 3.49137C60.7274 3.41736 60.5424 3.37936 60.3555 3.37971Z" fill="#3A4244"/>
<path d="M62.9216 4.83298C62.953 4.37369 63.1574 3.94345 63.4935 3.62921C63.8296 3.31498 64.2724 3.1402 64.7323 3.1402C65.1922 3.1402 65.635 3.31498 65.9711 3.62921C66.3072 3.94345 66.5116 4.37369 66.543 4.83298C66.5116 5.29227 66.3072 5.72251 65.9711 6.03675C65.635 6.35098 65.1922 6.52576 64.7323 6.52576C64.2724 6.52576 63.8296 6.35098 63.4935 6.03675C63.1574 5.72251 62.953 5.29227 62.9216 4.83298ZM66.1293 4.83298C66.1443 4.64021 66.1193 4.44641 66.0559 4.26377C65.9925 4.08113 65.892 3.91358 65.7608 3.77166C65.6297 3.62973 65.4706 3.51649 65.2936 3.43904C65.1166 3.36159 64.9255 3.32161 64.7323 3.32161C64.5391 3.32161 64.348 3.36159 64.171 3.43904C63.994 3.51649 63.8349 3.62973 63.7038 3.77166C63.5726 3.91358 63.4721 4.08113 63.4087 4.26377C63.3453 4.44641 63.3203 4.64021 63.3353 4.83298C63.3203 5.02575 63.3453 5.21955 63.4087 5.40219C63.4721 5.58483 63.5726 5.75237 63.7038 5.8943C63.8349 6.03623 63.994 6.14947 64.171 6.22692C64.348 6.30436 64.5391 6.34434 64.7323 6.34434C64.9255 6.34434 65.1166 6.30436 65.2936 6.22692C65.4706 6.14947 65.6297 6.03623 65.7608 5.8943C65.892 5.75237 65.9925 5.58483 66.0559 5.40219C66.1193 5.21955 66.1443 5.02575 66.1293 4.83298Z" fill="#3A4244"/>
<path d="M69.2695 6.64112C69.0165 6.673 68.7596 6.6496 68.5165 6.57254C68.2734 6.49547 68.0498 6.36656 67.8613 6.1947C67.6727 6.02284 67.5237 5.81211 67.4243 5.57702C67.325 5.34194 67.2777 5.08809 67.2858 4.83297C67.2804 4.57895 67.3295 4.32672 67.4299 4.09335C67.5302 3.85997 67.6795 3.6509 67.8676 3.48027C68.0557 3.30963 68.2782 3.18142 68.52 3.1043C68.7619 3.02719 69.0175 3.00296 69.2695 3.03327V0.946289H69.6747V3.03327C69.927 3.00151 70.1832 3.02472 70.4257 3.1013C70.6681 3.17788 70.8912 3.30602 71.0796 3.47695C71.268 3.64787 71.4173 3.85754 71.5172 4.09159C71.6171 4.32565 71.6653 4.57854 71.6584 4.83297C71.668 5.08849 71.6217 5.34303 71.5229 5.57881C71.424 5.81459 71.2749 6.02594 71.086 6.19811C70.8971 6.37027 70.673 6.49911 70.4292 6.57562C70.1855 6.65214 69.928 6.67449 69.6747 6.64112V8.33098H69.2695V6.64112ZM69.2695 3.37124C69.0671 3.34618 68.8617 3.3659 68.6678 3.42903C68.4738 3.49215 68.2961 3.59713 68.1472 3.73655C67.9982 3.87597 67.8817 4.04643 67.8058 4.23588C67.7299 4.42534 67.6964 4.62917 67.7079 4.83297C67.6934 5.03755 67.7247 5.24279 67.7995 5.4337C67.8744 5.62462 67.9909 5.79639 68.1406 5.93647C68.2902 6.07655 68.4692 6.18141 68.6646 6.24339C68.8599 6.30536 69.0666 6.32289 69.2695 6.2947V3.37124ZM71.2448 4.83297C71.2551 4.62905 71.2206 4.42535 71.1437 4.23626C71.0667 4.04717 70.9492 3.87731 70.7994 3.73868C70.6496 3.60006 70.4713 3.49605 70.2769 3.43402C70.0826 3.37199 69.877 3.35344 69.6747 3.37969V6.2947C69.8783 6.32428 70.0859 6.3078 70.2823 6.24645C70.4787 6.1851 70.6588 6.08045 70.8095 5.94021C70.9601 5.79996 71.0774 5.62769 71.1528 5.43607C71.2281 5.24445 71.2596 5.03836 71.2448 4.83297Z" fill="#3A4244"/>
<path d="M72.4013 4.82457C72.3862 4.59359 72.4188 4.36198 72.4969 4.1441C72.575 3.92623 72.6969 3.72674 72.8552 3.55799C73.0135 3.38925 73.2048 3.25486 73.4171 3.16315C73.6294 3.07144 73.8583 3.02437 74.0895 3.02486C74.3103 3.0156 74.5305 3.05358 74.7354 3.13628C74.9404 3.21898 75.1253 3.3445 75.2779 3.50444C75.4305 3.66438 75.5473 3.85508 75.6204 4.06379C75.6935 4.2725 75.7213 4.49442 75.7018 4.71473V4.91751H72.8149C72.8104 5.09716 72.8417 5.2759 72.9071 5.44328C72.9724 5.61066 73.0704 5.76333 73.1954 5.89235C73.3204 6.02137 73.4698 6.12416 73.6349 6.1947C73.8 6.26524 73.9775 6.30213 74.1571 6.30319C74.3848 6.3062 74.6101 6.2549 74.8141 6.15352C75.0181 6.05214 75.1951 5.90361 75.3304 5.72019L75.5921 5.93142C75.3672 6.2318 75.0529 6.45303 74.6944 6.56331C74.3359 6.67359 73.9518 6.66723 73.5971 6.54515C73.2425 6.42307 72.9357 6.19156 72.7208 5.88391C72.5059 5.57626 72.394 5.20832 72.4013 4.83302V4.82457ZM75.322 4.59643C75.3267 4.43465 75.2982 4.27362 75.2383 4.12331C75.1783 3.97299 75.0882 3.83659 74.9735 3.72254C74.8587 3.60849 74.7218 3.51922 74.5712 3.46026C74.4207 3.40129 74.2596 3.37389 74.098 3.37974C73.7682 3.38782 73.4537 3.52027 73.2174 3.75058C72.981 3.98089 72.8403 4.29205 72.8233 4.62178L75.322 4.59643Z" fill="#3A4244"/>
<path d="M79.2386 3.80217C79.119 3.66755 78.972 3.56017 78.8074 3.48729C78.6429 3.41441 78.4646 3.37772 78.2847 3.3797C78.097 3.37927 77.9113 3.4175 77.739 3.49203C77.5667 3.56656 77.4116 3.67578 77.2834 3.81289C77.1551 3.95001 77.0564 4.11208 76.9934 4.28903C76.9304 4.46598 76.9045 4.65402 76.9172 4.84143C76.9044 5.02734 76.9301 5.21389 76.9928 5.38937C77.0554 5.56484 77.1536 5.72546 77.2813 5.86114C77.4089 5.99681 77.5632 6.10462 77.7344 6.17777C77.9056 6.25093 78.0901 6.28787 78.2763 6.28626C78.4619 6.29047 78.6464 6.25582 78.818 6.18453C78.9895 6.11324 79.1443 6.00687 79.2723 5.87225L79.5256 6.10038C79.3701 6.27778 79.1777 6.4189 78.9618 6.51379C78.746 6.60868 78.5119 6.65503 78.2763 6.64958C78.0372 6.66217 77.7983 6.62375 77.5753 6.53687C77.3522 6.44999 77.1502 6.31663 76.9825 6.14564C76.8149 5.97466 76.6855 5.76995 76.6029 5.54509C76.5204 5.32024 76.4865 5.08038 76.5036 4.84143C76.4865 4.60248 76.5204 4.36262 76.6029 4.13777C76.6855 3.91292 76.8149 3.70821 76.9825 3.53722C77.1502 3.36623 77.3522 3.23287 77.5753 3.14599C77.7983 3.05911 78.0372 3.02069 78.2763 3.03328C78.508 3.02394 78.7388 3.06782 78.9509 3.16155C79.1631 3.25528 79.351 3.39638 79.5002 3.57404L79.2386 3.80217Z" fill="#3A4244"/>
<path d="M82.7925 3.80215C82.6783 3.67201 82.5383 3.56719 82.3813 3.49444C82.2243 3.42168 82.0538 3.38259 81.8808 3.37968C81.6928 3.37799 81.5064 3.41537 81.3336 3.48947C81.1607 3.56356 81.0051 3.67276 80.8766 3.81015C80.748 3.94754 80.6494 4.11013 80.5869 4.28764C80.5243 4.46515 80.4993 4.65372 80.5133 4.84141C80.5002 5.11996 80.5719 5.39594 80.7189 5.63283C80.8658 5.86972 81.0812 6.05637 81.3365 6.1681C81.5917 6.27982 81.8749 6.31135 82.1484 6.25852C82.422 6.20569 82.673 6.07099 82.8685 5.87223L83.1133 6.10036C82.9585 6.27868 82.7662 6.42042 82.5502 6.51539C82.3342 6.61036 82.0998 6.65619 81.8639 6.64956C81.6256 6.66092 81.3876 6.62158 81.1656 6.53414C80.9436 6.44671 80.7426 6.31317 80.5759 6.14232C80.4092 5.97147 80.2805 5.76719 80.1985 5.54296C80.1164 5.31872 80.0827 5.07962 80.0997 4.84141C80.0812 4.60103 80.1144 4.35948 80.1969 4.13298C80.2794 3.90647 80.4093 3.70026 80.5781 3.52819C80.7468 3.35612 80.9503 3.22218 81.175 3.13536C81.3997 3.04853 81.6404 3.01084 81.8808 3.02481C82.1125 3.01611 82.343 3.06027 82.5551 3.15396C82.7672 3.24765 82.9551 3.3884 83.1048 3.56557L82.7925 3.80215Z" fill="#3A4244"/>
<path d="M83.8813 3.1178H84.2865V5.98211L86.4391 3.1178H86.878V6.53977H86.4813V3.6501L84.3119 6.53977H83.8813V3.1178Z" fill="#3A4244"/>
<path d="M87.9248 4.83302C87.9248 4.35123 88.116 3.88917 88.4564 3.54849C88.7967 3.20781 89.2583 3.01642 89.7397 3.01642C90.221 3.01642 90.6826 3.20781 91.023 3.54849C91.3634 3.88917 91.5546 4.35123 91.5546 4.83302C91.5546 5.31481 91.3634 5.77687 91.023 6.11755C90.6826 6.45823 90.221 6.64962 89.7397 6.64962C89.2583 6.64962 88.7967 6.45823 88.4564 6.11755C88.116 5.77687 87.9248 5.31481 87.9248 4.83302ZM91.1325 4.83302C91.1325 4.64994 91.0965 4.46865 91.0265 4.29951C90.9565 4.13036 90.8539 3.97667 90.7246 3.84722C90.5952 3.71776 90.4417 3.61507 90.2727 3.54501C90.1037 3.47494 89.9226 3.43888 89.7397 3.43888C89.5568 3.43888 89.3757 3.47494 89.2067 3.54501C89.0377 3.61507 88.8841 3.71776 88.7548 3.84722C88.6255 3.97667 88.5229 4.13036 88.4529 4.29951C88.3829 4.46865 88.3469 4.64994 88.3469 4.83302C88.3469 5.0161 88.3829 5.19739 88.4529 5.36653C88.5229 5.53568 88.6255 5.68936 88.7548 5.81882C88.8841 5.94828 89.0377 6.05097 89.2067 6.12103C89.3757 6.19109 89.5568 6.22715 89.7397 6.22715C89.9226 6.22715 90.1037 6.19109 90.2727 6.12103C90.4417 6.05097 90.5952 5.94828 90.7246 5.81882C90.8539 5.68936 90.9565 5.53568 91.0265 5.36653C91.0965 5.19739 91.1325 5.0161 91.1325 4.83302Z" fill="#3A4244"/>
<path d="M92.5928 3.1178H92.998V4.59643H95.0999V3.1178H95.4966V6.53977H95.0999V4.9344H92.998V6.53977H92.5928V3.1178Z" fill="#3A4244"/>
<path d="M96.5518 5.6188C96.5518 4.60488 97.6576 4.46969 98.7212 4.46969H98.9744V4.3176C98.9905 4.18762 98.9761 4.05568 98.9324 3.93222C98.8888 3.80875 98.817 3.69713 98.7229 3.60618C98.6287 3.51522 98.5148 3.44741 98.3899 3.40812C98.2651 3.36882 98.1329 3.3591 98.0037 3.37973C97.6239 3.37929 97.2584 3.52442 96.9823 3.7853L96.7628 3.52337C97.1157 3.20952 97.5739 3.04054 98.0459 3.05021C98.2171 3.03021 98.3907 3.04795 98.5543 3.1022C98.718 3.15645 98.8678 3.24589 98.9933 3.36424C99.1188 3.48259 99.2169 3.62698 99.2807 3.7873C99.3445 3.94761 99.3725 4.11996 99.3627 4.29226V5.77088C99.3584 6.02846 99.3782 6.28589 99.4218 6.53977H99.0588C99.0221 6.33333 99.0023 6.12421 98.9997 5.91452C98.8818 6.14364 98.7005 6.33398 98.4775 6.46282C98.2545 6.59166 97.9992 6.65357 97.742 6.64116C97.5956 6.65882 97.447 6.64579 97.3059 6.60291C97.1648 6.56004 97.0341 6.48824 96.9221 6.3921C96.8102 6.29595 96.7195 6.17756 96.6557 6.04443C96.592 5.9113 96.5566 5.76635 96.5518 5.6188ZM98.9744 5.06959V4.78232H98.7634C97.9699 4.78232 97.0076 4.88371 97.0076 5.62725C97.0076 6.168 97.4634 6.34544 97.8517 6.34544C98.012 6.34419 98.1703 6.30911 98.3161 6.24247C98.4619 6.17584 98.5921 6.07916 98.698 5.95875C98.804 5.83834 98.8834 5.6969 98.931 5.54369C98.9786 5.39047 98.9934 5.22892 98.9744 5.06959Z" fill="#3A4244"/>
<path d="M100.013 6.53977L100.063 6.19334C100.139 6.20271 100.216 6.20271 100.291 6.19334C100.882 6.19334 101.135 5.57655 101.135 4.27535V3.1178H103.507V6.53977H103.111V3.45577H101.524V4.43589C101.524 5.68639 101.245 6.58201 100.35 6.58201C100.237 6.57732 100.124 6.56318 100.013 6.53977Z" fill="#3A4244"/>
<path d="M104.816 3.1178H105.221V4.46124H106.141C106.985 4.46124 107.441 4.85835 107.441 5.5174C107.441 6.17645 107.002 6.53977 106.141 6.53977H104.816V3.1178ZM106.183 6.20179C106.783 6.20179 107.028 5.93987 107.028 5.5174C107.028 5.09494 106.8 4.79921 106.183 4.79921H105.221V6.20179H106.183Z" fill="#3A4244"/>
<path d="M108.386 3.1178H108.792V4.59643H110.894V3.1178H111.29V6.53977H110.894V4.9344H108.792V6.53977H108.386V3.1178Z" fill="#3A4244"/>
<path d="M112.607 3.1178H113.012V4.46124H113.958C114.802 4.46124 115.258 4.85835 115.258 5.5174C115.258 6.17645 114.802 6.53977 113.958 6.53977H112.607V3.1178ZM113.958 6.20179C114.566 6.20179 114.802 5.93987 114.802 5.5174C114.802 5.09494 114.574 4.79921 113.958 4.79921H112.995V6.20179H113.958ZM115.891 3.1178H116.288V6.53977H115.891V3.1178Z" fill="#3A4244"/>
<path d="M117.621 3.11775H118.027V5.98207L120.179 3.11775H120.618V6.53972H120.23V3.65006L118.077 6.53972H117.638L117.621 3.11775ZM118.086 1.42789L118.364 1.3772C118.391 1.55727 118.482 1.72164 118.62 1.84045C118.758 1.95925 118.934 2.02459 119.115 2.02459C119.297 2.02459 119.473 1.95925 119.611 1.84045C119.749 1.72164 119.84 1.55727 119.867 1.3772L120.145 1.42789C120.113 1.67856 119.991 1.90892 119.801 2.07587C119.612 2.24282 119.368 2.3349 119.115 2.3349C118.863 2.3349 118.619 2.24282 118.43 2.07587C118.24 1.90892 118.118 1.67856 118.086 1.42789Z" fill="#3A4244"/>
<path d="M123.699 3.1178H126.552V6.53977H126.156V3.45577H124.088V6.53977H123.682L123.699 3.1178Z" fill="#3A4244"/>
<path d="M127.599 4.83302C127.599 4.35123 127.79 3.88917 128.131 3.54849C128.471 3.20781 128.933 3.01642 129.414 3.01642C129.895 3.01642 130.357 3.20781 130.697 3.54849C131.038 3.88917 131.229 4.35123 131.229 4.83302C131.229 5.31481 131.038 5.77687 130.697 6.11755C130.357 6.45823 129.895 6.64962 129.414 6.64962C128.933 6.64962 128.471 6.45823 128.131 6.11755C127.79 5.77687 127.599 5.31481 127.599 4.83302ZM130.807 4.83302C130.807 4.46327 130.66 4.10867 130.399 3.84722C130.138 3.58577 129.783 3.43888 129.414 3.43888C129.045 3.43888 128.69 3.58577 128.429 3.84722C128.168 4.10867 128.021 4.46327 128.021 4.83302C128.021 5.20277 128.168 5.55737 128.429 5.81882C128.69 6.08027 129.045 6.22715 129.414 6.22715C129.783 6.22715 130.138 6.08027 130.399 5.81882C130.66 5.55737 130.807 5.20277 130.807 4.83302Z" fill="#3A4244"/>
<path d="M131.685 6.20179H132.09C132.503 5.55874 132.703 4.80215 132.664 4.03877V3.1178H135.061V6.20179H135.618V7.67197H135.247V6.53977H132.039V7.67197H131.685V6.20179ZM134.69 6.20179V3.45577H133.052V4.14861C133.077 4.86685 132.902 5.57792 132.546 6.20179H134.69Z" fill="#3A4244"/>
<path d="M137.391 4.76541L136.142 3.1178H136.657L137.636 4.48659L138.615 3.1178H139.105L137.872 4.74851L139.282 6.53977H138.758L137.594 5.06959L136.488 6.57356H136.007L137.391 4.76541Z" fill="#3A4244"/>
<path d="M139.687 4.83302C139.687 4.35123 139.878 3.88917 140.219 3.54849C140.559 3.20781 141.021 3.01642 141.502 3.01642C141.983 3.01642 142.445 3.20781 142.785 3.54849C143.126 3.88917 143.317 4.35123 143.317 4.83302C143.317 5.31481 143.126 5.77687 142.785 6.11755C142.445 6.45823 141.983 6.64962 141.502 6.64962C141.021 6.64962 140.559 6.45823 140.219 6.11755C139.878 5.77687 139.687 5.31481 139.687 4.83302ZM142.895 4.83302C142.895 4.46327 142.748 4.10867 142.487 3.84722C142.226 3.58577 141.871 3.43888 141.502 3.43888C141.133 3.43888 140.778 3.58577 140.517 3.84722C140.256 4.10867 140.109 4.46327 140.109 4.83302C140.109 5.20277 140.256 5.55737 140.517 5.81882C140.778 6.08027 141.133 6.22715 141.502 6.22715C141.871 6.22715 142.226 6.08027 142.487 5.81882C142.748 5.55737 142.895 5.20277 142.895 4.83302Z" fill="#3A4244"/>
<path d="M143.764 6.20179H144.169C144.582 5.55874 144.783 4.80215 144.743 4.03877V3.1178H147.158V6.20179H147.723V7.67197H147.352V6.53977H144.144V7.67197H143.773L143.764 6.20179ZM146.769 6.20179V3.45577H145.132V4.14861C145.157 4.86685 144.982 5.57792 144.625 6.20179H146.769Z" fill="#3A4244"/>
<path d="M150.382 3.1178H150.779V4.73161L152.467 3.1178H153.041L151.252 4.74851L153.227 6.53977H152.636L150.796 4.79921V6.53977H150.399L150.382 3.1178Z" fill="#3A4244"/>
<path d="M155.438 5.6188C155.438 4.60488 156.553 4.46969 157.608 4.46969H157.861V4.3176C157.877 4.18762 157.863 4.05568 157.819 3.93222C157.775 3.80875 157.704 3.69713 157.61 3.60618C157.515 3.51522 157.401 3.44741 157.277 3.40812C157.152 3.36882 157.02 3.3591 156.89 3.37973C156.511 3.37929 156.145 3.52442 155.869 3.7853L155.65 3.52337C156.002 3.20952 156.461 3.04054 156.933 3.05021C157.104 3.03021 157.277 3.04795 157.441 3.1022C157.605 3.15645 157.755 3.24589 157.88 3.36424C158.006 3.48259 158.104 3.62698 158.167 3.7873C158.231 3.94761 158.259 4.11996 158.249 4.29226V5.77088C158.245 6.02846 158.265 6.28588 158.309 6.53977H157.946C157.897 6.33427 157.866 6.12514 157.853 5.91452C157.735 6.14364 157.553 6.33398 157.33 6.46282C157.107 6.59166 156.852 6.65357 156.595 6.64116C156.451 6.65387 156.306 6.63714 156.169 6.59201C156.032 6.54687 155.906 6.47427 155.797 6.37862C155.689 6.28297 155.602 6.16628 155.54 6.03565C155.478 5.90502 155.444 5.76319 155.438 5.6188ZM157.853 5.06959V4.78232H157.599C156.806 4.78232 155.844 4.88371 155.844 5.62725C155.844 6.168 156.299 6.34544 156.688 6.34544C156.852 6.35025 157.015 6.31962 157.166 6.25566C157.316 6.19169 157.452 6.09588 157.562 5.97478C157.673 5.85367 157.756 5.71011 157.806 5.5539C157.856 5.39768 157.872 5.23249 157.853 5.06959Z" fill="#3A4244"/>
<path d="M159.541 3.1178H161.077C161.601 3.1178 162.166 3.30368 162.166 3.96273C162.167 4.14159 162.105 4.31503 161.991 4.45256C161.876 4.5901 161.717 4.68292 161.542 4.71472C161.757 4.72765 161.959 4.82235 162.106 4.97942C162.254 5.1365 162.335 5.34407 162.335 5.55965C162.335 6.17645 161.812 6.49752 161.111 6.49752H159.541V3.1178ZM161.06 4.59643C161.39 4.59643 161.77 4.43589 161.77 4.02187C161.77 3.60786 161.415 3.45577 160.993 3.45577H159.946V4.59643H161.06ZM161.06 6.20179C161.542 6.20179 161.905 6.02436 161.905 5.57655C161.905 5.12873 161.542 4.92595 161.06 4.92595H159.904V6.20179H161.06Z" fill="#3A4244"/>
<path d="M164.074 3.45577H162.808V3.1178H165.729V3.45577H164.471V6.53977H164.074V3.45577Z" fill="#3A4244"/>
<path d="M166.159 4.83298C166.191 4.37369 166.395 3.94345 166.731 3.62921C167.067 3.31498 167.51 3.1402 167.97 3.1402C168.43 3.1402 168.873 3.31498 169.209 3.62921C169.545 3.94345 169.749 4.37369 169.781 4.83298C169.749 5.29227 169.545 5.72251 169.209 6.03675C168.873 6.35098 168.43 6.52576 167.97 6.52576C167.51 6.52576 167.067 6.35098 166.731 6.03675C166.395 5.72251 166.191 5.29227 166.159 4.83298ZM169.367 4.83298C169.367 4.46323 169.22 4.10863 168.959 3.84718C168.698 3.58573 168.343 3.43884 167.974 3.43884C167.605 3.43884 167.25 3.58573 166.989 3.84718C166.728 4.10863 166.581 4.46323 166.581 4.83298C166.581 5.20273 166.728 5.55733 166.989 5.81878C167.25 6.08023 167.605 6.22711 167.974 6.22711C168.343 6.22711 168.698 6.08023 168.959 5.81878C169.22 5.55733 169.367 5.20273 169.367 4.83298Z" fill="#3A4244"/>
<path d="M9.77502 29.9359C8.07223 29.9369 6.39872 29.4927 4.92021 28.6472C3.44171 27.8017 2.20949 26.5843 1.3456 25.1156C0.481703 23.6468 0.0161008 21.9777 -0.0051014 20.2734C-0.0263036 18.5692 0.39763 16.8889 1.22472 15.3991C2.0518 13.9093 3.25335 12.6616 4.71037 11.7795C6.16739 10.8974 7.82933 10.4116 9.5316 10.3702C11.2339 10.3288 12.9174 10.7332 14.4156 11.5433C15.9137 12.3534 17.1744 13.5412 18.0728 14.9891C18.2098 15.211 18.3016 15.4577 18.3433 15.7152C18.3849 15.9727 18.3755 16.2358 18.3155 16.4896C18.2556 16.7434 18.1462 16.9829 17.9938 17.1945C17.8414 17.406 17.6488 17.5854 17.4271 17.7224C17.2054 17.8595 16.9589 17.9514 16.7017 17.9931C16.4444 18.0348 16.1815 18.0254 15.928 17.9653C15.6744 17.9053 15.4351 17.7959 15.2238 17.6433C15.0124 17.4907 14.8332 17.298 14.6963 17.0761C14.0295 15.995 13.0286 15.1611 11.8455 14.701C10.6623 14.2409 9.3615 14.1796 8.14042 14.5265C6.91934 14.8734 5.84464 15.6095 5.07938 16.6232C4.31412 17.6368 3.90008 18.8726 3.90008 20.1432C3.90008 21.4137 4.31412 22.6495 5.07938 23.6631C5.84464 24.6768 6.91934 25.4129 8.14042 25.7598C9.3615 26.1067 10.6623 26.0454 11.8455 25.5853C13.0286 25.1252 14.0295 24.2913 14.6963 23.2102L15.2788 22.2808H31.8322C32.3327 22.3136 32.8019 22.5357 33.1448 22.9021C33.4877 23.2685 33.6784 23.7517 33.6784 24.2537C33.6784 24.7557 33.4877 25.239 33.1448 25.6053C32.8019 25.9717 32.3327 26.1939 31.8322 26.2267H17.4313C16.5206 27.3866 15.3577 28.3235 14.0311 28.9662C12.7044 29.6089 11.2489 29.9405 9.77502 29.9359Z" fill="#67A955"/>
<path d="M39.0158 29.9359C37.0821 29.9359 35.1919 29.3618 33.5842 28.2864C31.9765 27.2109 30.7236 25.6823 29.984 23.8939C29.2444 22.1056 29.0513 20.1379 29.4292 18.2397C29.807 16.3415 30.7389 14.5981 32.1068 13.2301C33.4747 11.8621 35.2172 10.9309 37.1139 10.5543C39.0107 10.1777 40.9764 10.3727 42.7624 11.1145C44.5484 11.8564 46.0745 13.1118 47.1476 14.7219C48.2206 16.332 48.7925 18.2245 48.7908 20.1601C48.7864 22.7529 47.7548 25.2381 45.9224 27.0707C44.0899 28.9033 41.6061 29.9337 39.0158 29.9359ZM39.0158 14.3216C37.8618 14.3199 36.7332 14.6609 35.7729 15.3014C34.8125 15.942 34.0636 16.8532 33.6208 17.9199C33.178 18.9866 33.0613 20.1608 33.2854 21.2939C33.5095 22.427 34.0644 23.4681 34.8798 24.2855C35.6953 25.1029 36.7346 25.6598 37.8663 25.8857C38.998 26.1117 40.1712 25.9966 41.2376 25.5549C42.3039 25.1133 43.2154 24.3649 43.8567 23.4046C44.498 22.4443 44.8403 21.3152 44.8403 20.1601C44.8292 18.6204 44.2109 17.1475 43.12 16.0619C42.0292 14.9763 40.554 14.366 39.0158 14.3638V14.3216Z" fill="#4092BF"/>
<path d="M46.8156 22.6864C46.5566 22.6875 46.2999 22.6374 46.0603 22.5389C45.8207 22.4405 45.6029 22.2957 45.4194 22.1128C45.2358 21.9298 45.0902 21.7124 44.9908 21.473C44.8915 21.2336 44.8403 20.9769 44.8403 20.7177C44.8442 17.515 43.9309 14.3782 42.2086 11.679C40.4863 8.97981 38.0272 6.83125 35.1226 5.48782C32.218 4.14439 28.9896 3.66239 25.8197 4.0989C22.6499 4.53542 19.6714 5.87215 17.2372 7.95078C17.0451 8.14977 16.8134 8.30619 16.5572 8.40993C16.3009 8.51367 16.0258 8.56242 15.7495 8.55302C15.4732 8.54363 15.202 8.4763 14.9534 8.35539C14.7048 8.23447 14.4842 8.06267 14.3061 7.8511C14.128 7.63952 13.9962 7.39287 13.9193 7.12711C13.8424 6.86135 13.8221 6.58239 13.8596 6.30827C13.8972 6.03416 13.9919 5.77099 14.1374 5.53578C14.283 5.30057 14.4763 5.09857 14.7048 4.94283C17.715 2.38734 21.3925 0.746678 25.3036 0.214297C29.2148 -0.318084 33.1964 0.280017 36.7791 1.93808C40.3619 3.59614 43.3962 6.24501 45.5245 9.57238C47.6527 12.8997 48.786 16.7668 48.7909 20.7177C48.7909 20.9769 48.7397 21.2336 48.6404 21.473C48.541 21.7124 48.3954 21.9298 48.2118 22.1128C48.0283 22.2957 47.8105 22.4405 47.5709 22.5389C47.3313 22.6374 47.0746 22.6875 46.8156 22.6864Z" fill="#4092BF"/>
<path d="M68.7715 15.7411C68.2611 15.1215 67.6146 14.6284 66.8825 14.3001C66.1504 13.9718 65.3524 13.8172 64.5508 13.8484C60.7606 13.8484 58.1945 16.7803 58.1945 20.6079C58.1945 24.6044 60.6256 27.3673 64.4157 27.3673C65.2759 27.3953 66.1302 27.2166 66.9071 26.8462C67.6841 26.4757 68.361 25.9243 68.8812 25.2381L71.5487 27.0378C70.6959 28.0931 69.6081 28.9339 68.3724 29.4929C67.1367 30.052 65.7875 30.3136 64.4326 30.257C58.7009 30.257 54.6238 26.2858 54.6238 20.5487C54.6238 14.6342 58.9373 10.9334 64.593 10.9334C66.9819 10.9334 69.8097 11.7783 71.2616 13.7386L68.7715 15.7411Z" fill="#3A4244"/>
<path d="M71.9116 26.911H73.4395C75.2797 24.8071 76.242 21.5626 76.242 16.155V11.4319H89.0897V26.911H91.1663V34H88.2287V29.7753H74.8408V34H71.9116V26.911ZM85.8398 26.911V14.2877H79.4328V16.493C79.4328 22.0273 78.3186 25.2211 77.1537 26.911H85.8398Z" fill="#3A4244"/>
<path d="M98.9997 24.7565H92.77V22.1034H98.9997V24.7565Z" fill="#3A4244"/>
<path d="M107.821 11.4319H110.649L118.567 29.8176H114.802L113.114 25.5929H105.145L103.457 29.8176H99.8018L107.821 11.4319ZM111.974 22.8131L109.146 15.3355L106.268 22.8131H111.974Z" fill="#3A4244"/>
<path d="M120.382 11.4319H127.549C130.326 11.4319 133.179 12.6993 133.179 16.0537C133.188 16.9873 132.877 17.8958 132.298 18.6277C131.719 19.3597 130.907 19.8707 129.997 20.0755V20.1347C131.091 20.2001 132.116 20.689 132.857 21.4979C133.597 22.3069 133.994 23.3724 133.964 24.4692C133.964 28.4657 130.486 29.8176 127.008 29.8176H120.39L120.382 11.4319ZM123.657 18.9095H126.561C128.739 18.9095 129.937 17.997 129.937 16.417C129.937 14.837 128.764 14.1272 126.299 14.1272H123.682L123.657 18.9095ZM123.657 27.0631H126.62C128.308 27.0631 130.722 26.7251 130.722 24.3086C130.722 22.3906 129.397 21.7147 126.747 21.7147H123.691L123.657 27.0631Z" fill="#3A4244"/>
<path d="M140.886 14.2877H135.255V11.4319H149.783V14.2877H144.153V29.8176H140.886V14.2877Z" fill="#3A4244"/>
<path d="M160.09 10.9841C165.821 10.9841 170 14.7018 170 20.5994C170 26.3365 165.821 30.3076 160.09 30.3076C154.358 30.3076 150.256 26.3111 150.256 20.574C150.256 14.6764 154.476 10.9841 160.09 10.9841ZM160.09 27.3757C163.855 27.3757 166.421 24.5199 166.421 20.6163C166.421 16.7127 163.888 13.8568 160.09 13.8568C156.291 13.8568 153.784 16.7887 153.784 20.6163C153.784 24.4438 156.376 27.3504 160.115 27.3504L160.09 27.3757Z" fill="#3A4244"/>
</svg>
