<svg width="48" height="48" viewBox="0 0 48 48" fill="none" xmlns="http://www.w3.org/2000/svg">
<circle cx="29" cy="29" r="19" fill="#67A955" fill-opacity="0.2"/>
<path d="M34.087 29.4834C33.6571 29.0984 32.9966 29.136 32.6137 29.5648C30.437 31.9972 27.2982 33.3913 23.9997 33.3913C20.7023 33.3913 17.5625 31.9972 15.3858 29.5648C15.0008 29.136 14.3423 29.0984 13.9124 29.4834C13.4825 29.8674 13.447 30.5269 13.831 30.9568C16.4032 33.8306 20.1096 35.4782 23.9997 35.4782C27.8909 35.4782 31.5973 33.8295 34.1684 30.9568C34.5524 30.5269 34.5159 29.8674 34.087 29.4834Z" fill="#3A4244"/>
<path d="M24 0C10.7666 0 0 10.7666 0 24C0 37.2334 10.7666 48 24 48C37.2334 48 48 37.2334 48 24C48 10.7666 37.2334 0 24 0ZM24 45.913C11.9165 45.913 2.08696 36.0835 2.08696 24C2.08696 11.9165 11.9165 2.08696 24 2.08696C36.0835 2.08696 45.913 11.9165 45.913 24C45.913 36.0835 36.0835 45.913 24 45.913Z" fill="#3A4244"/>
<path d="M32.3478 16.6956C29.4709 16.6956 27.1304 19.0361 27.1304 21.9129C27.1304 22.4889 27.5978 22.9564 28.1738 22.9564C28.7498 22.9564 29.2173 22.4889 29.2173 21.9129C29.2173 20.187 30.6218 18.7825 32.3478 18.7825C34.0737 18.7825 35.4782 20.187 35.4782 21.9129C35.4782 22.4889 35.9457 22.9564 36.5217 22.9564C37.0977 22.9564 37.5652 22.4889 37.5652 21.9129C37.5652 19.0361 35.2246 16.6956 32.3478 16.6956Z" fill="#3A4244"/>
<path d="M18.7824 21.9129C18.7824 22.4889 19.2499 22.9564 19.8259 22.9564C20.4019 22.9564 20.8694 22.4889 20.8694 21.9129C20.8694 19.0361 18.5288 16.6956 15.652 16.6956C12.7751 16.6956 10.4346 19.0361 10.4346 21.9129C10.4346 22.4889 10.902 22.9564 11.478 22.9564C12.054 22.9564 12.5215 22.4889 12.5215 21.9129C12.5215 20.187 13.926 18.7825 15.652 18.7825C17.3779 18.7825 18.7824 20.187 18.7824 21.9129Z" fill="#3A4244"/>
</svg>
