<svg width="48" height="52" viewBox="0 0 48 52" fill="none" xmlns="http://www.w3.org/2000/svg">
<circle cx="19" cy="33" r="19" fill="#67A955" fill-opacity="0.2"/>
<path d="M35.875 37.125C35.3575 37.125 34.9375 37.545 34.9375 38.0625C34.9375 38.58 35.3575 39 35.875 39C36.3925 39 36.8125 38.58 36.8125 38.0625C36.8125 37.545 36.3925 37.125 35.875 37.125Z" fill="black"/>
<path d="M38.1833 34.0934L33.7274 32.6084L32.1277 29.409C33.5688 27.9422 34.5694 26.0014 34.9068 23.977L35.1063 22.7812H36.8125C38.3633 22.7812 39.625 21.5196 39.625 19.9688V14.0625C39.625 6.30844 33.3166 0 25.5625 0C17.7886 0 11.5 6.29034 11.5 14.0625V19.9688C11.5 21.1909 12.2838 22.233 13.375 22.62V23.7188C13.375 25.2696 14.6367 26.5312 16.1875 26.5312H17.0108C17.4172 27.4141 17.9432 28.2318 18.5834 28.9663C18.7161 29.1189 18.8546 29.2669 18.9964 29.4108L17.3976 32.6084L12.9416 34.0935C7.7605 35.8211 4 41.2754 4 47.0625C4 47.5803 4.41972 48 4.9375 48H46.1875C46.7052 48 47.125 47.5803 47.125 47.0625C47.125 41.2754 43.3646 35.8211 38.1833 34.0934ZM37.75 19.9688C37.75 20.4857 37.3294 20.9062 36.8125 20.9062H35.3817C35.62 19.0603 35.7788 17.096 35.8427 15.1613C35.8445 15.1067 35.846 15.0536 35.8477 15H37.75V19.9688ZM14.3125 20.9062C13.7956 20.9062 13.375 20.4857 13.375 19.9688V15H15.2779C15.281 15.0978 15.2843 15.196 15.288 15.2949C15.2881 15.2983 15.2882 15.3016 15.2883 15.305C15.2883 15.3053 15.2883 15.3055 15.2883 15.3058C15.354 17.1876 15.5107 19.1009 15.7436 20.9062H14.3125V20.9062ZM16.1875 24.6562C15.6706 24.6562 15.25 24.2357 15.25 23.7188V22.7812H16.0186L16.2181 23.9774C16.2561 24.2048 16.3029 24.4312 16.357 24.6562H16.1875ZM15.2516 13.125H13.4106C13.8855 6.84178 19.1291 1.875 25.5625 1.875C31.9673 1.875 37.234 6.84113 37.7143 13.125H35.8735C35.806 7.94747 31.5898 3.75 26.4017 3.75H24.7235C19.5355 3.75 15.319 7.94747 15.2516 13.125ZM24.7234 5.625H26.4016C30.6024 5.625 34.0024 9.06103 34 13.2572C34 13.5522 33.9977 13.8091 33.9927 14.0428C33.9927 14.0458 33.9926 14.0489 33.9926 14.052L32.82 13.8845C29.6343 13.4296 26.6265 11.9257 24.3504 9.64959C24.1745 9.47381 23.9361 9.375 23.6875 9.375C21.1698 9.375 18.7596 10.5221 17.1664 12.4601C17.5591 8.64272 20.7862 5.625 24.7234 5.625ZM18.3006 24.6562C17.8313 23.095 17.2943 18.5013 17.1756 15.5575L18.4374 13.8751C19.5962 12.3305 21.3992 11.3707 23.317 11.2606C25.8405 13.6621 29.105 15.248 32.5548 15.7405L33.935 15.9378C33.8428 17.8958 33.6542 19.8606 33.3842 21.6676C33.3841 21.6682 33.384 21.6688 33.3839 21.6695C33.298 22.2504 33.2303 22.6243 33.0574 23.6686C32.5609 26.6466 30.3389 29.3395 27.4055 30.0729C26.1983 30.3743 24.9265 30.3743 23.7199 30.0729C21.8883 29.6151 20.2089 28.3477 19.1251 26.5312H21.0363C21.4233 27.6224 22.4653 28.4062 23.6875 28.4062H25.5625C27.1164 28.4062 28.375 27.1478 28.375 25.5938C28.375 24.0429 27.1133 22.7812 25.5625 22.7812H23.6875C22.4381 22.7812 21.4114 23.5882 21.0347 24.6562H18.3006ZM23.6087 31.9702C24.2517 32.1057 24.9073 32.175 25.5625 32.175C26.0754 32.175 26.5884 32.1321 27.0956 32.0488L25.439 33.8007L23.6087 31.9702ZM24.1502 35.1637L21.1766 38.3082C20.358 36.7413 19.6546 35.1105 19.0776 33.441L20.1943 31.2077L24.1502 35.1637ZM30.7718 30.8901L32.0472 33.4409C31.4693 35.1132 30.7657 36.7446 29.9479 38.3096L26.7653 35.127L30.7718 30.8901ZM22.75 25.5938C22.75 25.0762 23.1698 24.6562 23.6875 24.6562H25.5625C26.0794 24.6562 26.5 25.0768 26.5 25.5938C26.5 26.1114 26.0801 26.5312 25.5625 26.5312H23.6875C23.1706 26.5312 22.75 26.1107 22.75 25.5938ZM5.9125 46.125C6.28403 41.4807 9.37488 37.2593 13.5346 35.8722L17.4809 34.5571C18.2039 36.5563 19.0996 38.4995 20.1493 40.3452C20.1511 40.3484 20.1528 40.3516 20.1545 40.3547C20.1545 40.3548 20.1546 40.3548 20.1546 40.3549C20.9216 41.7038 21.7848 43.0221 22.7208 44.2735L23.8741 46.125H5.9125ZM25.5625 45.2893L24.2911 43.2481C24.2768 43.2252 24.2616 43.203 24.2455 43.1814C23.4863 42.1688 22.7781 41.1097 22.1331 40.0256L25.4765 36.4899L28.9995 40.0129C28.3502 41.1048 27.6395 42.1683 26.8797 43.1813C26.8337 43.2425 26.8989 43.146 25.5625 45.2893ZM27.2509 46.125L28.4042 44.2736C29.3442 43.0174 30.2136 41.6886 30.9883 40.3237C30.993 40.3155 30.9974 40.3071 31.0021 40.2988C31.0026 40.2978 31.0032 40.2968 31.0037 40.2958C32.0402 38.4677 32.9265 36.5414 33.6441 34.5571L37.5903 35.8722C41.7501 37.2593 44.841 41.4807 45.2125 46.125H27.2509Z" fill="#3A4244"/>
<path d="M42.3946 42.331C41.7681 41.0769 40.8503 39.9628 39.7406 39.1091C39.3302 38.7933 38.7416 38.8701 38.426 39.2805C38.1102 39.6909 38.187 40.2795 38.5973 40.5953C39.4836 41.2771 40.2166 42.1671 40.7171 43.169C40.949 43.6329 41.5124 43.8197 41.9748 43.5887C42.4379 43.3573 42.6259 42.7943 42.3946 42.331Z" fill="black"/>
</svg>
